<?xml version="1.0" encoding="utf-8"?>
<!-- Generator: Adobe Illustrator 22.1.0, SVG Export Plug-In . SVG Version: 6.00 Build 0)  -->
<svg version="1.1" id="Layer_1" xmlns="http://www.w3.org/2000/svg" xmlns:xlink="http://www.w3.org/1999/xlink" x="0px" y="0px"
	 viewBox="0 0 100 100" style="enable-background:new 0 0 100 100;" xml:space="preserve">
<style type="text/css">
	.st0{fill:#FFFFFF;}
	.st1{fill:none;stroke:#000000;stroke-width:0.5;stroke-miterlimit:10;}
	.st2{fill:#F93232;}
</style>
<circle class="st0" cx="50.1" cy="49.4" r="49.4"/>
<g>
	
		<image style="overflow:visible;opacity:0.75;" width="519" height="519" xlink:href="794E20EC.png"  transform="matrix(0.24 0 0 0.24 -5.12 -6.12)">
	</image>
	<g>
		<circle class="st1" cx="50.1" cy="49.1" r="47"/>
	</g>
</g>
<g>
	
		<image style="overflow:visible;opacity:0.75;" width="150" height="166" xlink:href="794E20ED.png"  transform="matrix(0.24 0 0 0.24 15.76 34.92)">
	</image>
	<g>
		<path class="st2" d="M29.4,52.2c-1.9-0.4-3.4-1.7-4-3.5c-0.5-1.9-0.8-3.8-1.1-5.7c0-0.1-0.2-0.1-0.2,0c-0.7,2.3-0.5,4.7,0.5,6.8
			c0.8,1.8,2.7,2.9,4.6,2.7C29.5,52.5,29.6,52.3,29.4,52.2z"/>
	</g>
</g>
<g>
	
		<image style="overflow:visible;opacity:0.75;" width="147" height="160" xlink:href="794E20EB.png"  transform="matrix(0.24 0 0 0.24 22 36.36)">
	</image>
	<g>
		<path class="st2" d="M34.9,44.4c-0.5,0.5-0.8,1.1-1.1,1.7c-0.5,0.9-0.9,1.7-1.4,2.6c-0.5,0.9-1,1.8-1.7,2.6
			c-0.4,0.5-0.7,0.8-0.6,1.5l0.1,0c1.2-1.1,2.2-2.4,3.1-3.7c0.8-1.4,1.4-2.9,1.7-4.5L34.9,44.4L34.9,44.4z"/>
	</g>
</g>
<g>
	
		<image style="overflow:visible;opacity:0.75;" width="139" height="136" xlink:href="794E20F4.png"  transform="matrix(0.24 0 0 0.24 22.24 45.24)">
	</image>
	<g>
		<path d="M33.5,55.2c-0.5-0.2-1-0.4-1.6-0.5c-0.6-0.2-1-0.7-1.2-1.3l-0.1,0c-0.1,0.3-0.1,0.6,0,0.9c0.2,0.3,0.4,0.6,0.8,0.8
			c0.5,0.3,1.5,0.8,2.1,0.4C33.5,55.5,33.6,55.3,33.5,55.2z"/>
	</g>
</g>
<g>
	
		<image style="overflow:visible;opacity:0.75;" width="138" height="130" xlink:href="794E20F7.png"  transform="matrix(0.24 0 0 0.24 25.84 45.96)">
	</image>
	<g>
		<path d="M36.8,54.7c-0.4-1-2.1-0.4-2.9-0.2l-0.1,0.1c0.3,0.3,0.6,0.4,1,0.4c0.5-0.1,1,0,1.5,0.1c0.2,0.1,0.4,0,0.4-0.2L36.8,54.7z
			"/>
	</g>
</g>
<g>
	
		<image style="overflow:visible;opacity:0.75;" width="137" height="132" xlink:href="794E20F5.png"  transform="matrix(0.24 0 0 0.24 28.72 45.96)">
	</image>
	<g>
		<path d="M39.4,54.2c-0.1-0.1-0.2-0.1-0.3,0c-0.2,0.1-0.2,0.3-0.3,0.4c-0.2,0.2-0.4,0.3-0.6,0.4c-0.4,0.2-0.8,0.3-1.2,0.5l0,0.1
			c0.6,0,1.2-0.1,1.7-0.3C39.1,55.2,39.8,54.8,39.4,54.2z"/>
	</g>
</g>
<g>
	
		<image style="overflow:visible;opacity:0.75;" width="174" height="164" xlink:href="794E20FB.png"  transform="matrix(0.24 0 0 0.24 27.28 35.88)">
	</image>
	<g>
		<path class="st2" d="M47,51c-2.3,1.7-5.5,1.9-8,0.5c-0.9-0.8-1.5-1.9-1.9-3c-0.8-1.4-1-2.9-0.8-4.4L36.2,44
			c-0.8,1.4-0.9,3-0.2,4.5c0.4,1.5,1.3,2.9,2.6,3.9c1.7,0.8,3.7,1.1,5.5,0.7C45.3,53,46.5,52.3,47,51L47,51z"/>
	</g>
</g>
<g>
	
		<image style="overflow:visible;opacity:0.75;" width="134" height="160" xlink:href="794E20FC.png"  transform="matrix(0.24 0 0 0.24 38.32 34.44)">
	</image>
	<g>
		<path class="st2" d="M48.3,46.4c0-1.4-0.1-3.2-1.5-3.9c-0.1,0-0.3,0-0.3,0.1c0,0,0,0,0,0l0,0.2c0.6,1.2,0.9,2.4,0.9,3.7
			c0.3,1.4,0.2,2.8-0.1,4.1l0,0C48.1,49.4,48.5,47.9,48.3,46.4z"/>
	</g>
</g>
<g>
	
		<image style="overflow:visible;opacity:0.75;" width="131" height="140" xlink:href="794E20FF.png"  transform="matrix(0.24 0 0 0.24 23.68 35.16)">
	</image>
	<g>
		<path d="M31.8,43.4l-0.1,0.1c0.9,0.6,0.4,1.9,0.6,2.8c0,0.2,0.2,0.3,0.4,0.3l0.2-0.1c0.6-1.1,0.1-2.5-1-3c0,0,0,0,0,0L31.8,43.4z"
			/>
	</g>
</g>
<g>
	
		<image style="overflow:visible;opacity:0.75;" width="132" height="152" xlink:href="884AC27B.png"  transform="matrix(0.24 0 0 0.24 22.48 22.92)">
	</image>
	<g>
		<path d="M31.8,31.2c0-0.1-0.1-0.1-0.2-0.1c0,0,0,0,0,0l-0.1,0.1c-0.2,1.9-0.7,3.7-1,5.6c0,0.2,0.1,0.4,0.3,0.4
			c0.1,0,0.2,0,0.3-0.1C32,35.3,32.3,33.2,31.8,31.2z"/>
	</g>
</g>
<g>
	
		<image style="overflow:visible;opacity:0.75;" width="133" height="141" xlink:href="884AC279.png"  transform="matrix(0.24 0 0 0.24 25.84 48.6)">
	</image>
	<g>
		<path d="M35,58.8c-0.6-0.6-0.4-1.4-0.7-2.1l-0.1,0l0,0.1c0,0.7-0.4,1.4,0,2.1c0.3,0.5,0.6,0.9,1,1.3c0.1,0.1,0.2,0.1,0.4,0
			c0,0,0,0,0,0l0.1-0.1C35.8,59.6,35.3,59.2,35,58.8z"/>
	</g>
</g>
<g>
	
		<image style="overflow:visible;opacity:0.75;" width="136" height="142" xlink:href="884AC27F.png"  transform="matrix(0.24 0 0 0.24 27.04 48.84)">
	</image>
	<g>
		<path d="M36.9,59c-0.3-0.3-0.6-0.5-0.9-0.8c-0.2-0.3-0.4-0.7-0.5-1.1l-0.1,0c-0.5,1.6,1.2,2.3,1.7,3.6c0.1,0.1,0.2,0.2,0.3,0.1
			c0,0,0,0,0,0l0.1-0.1C37.8,60,37.4,59.5,36.9,59z"/>
	</g>
</g>
<g>
	
		<image style="overflow:visible;opacity:0.75;" width="139" height="142" xlink:href="884AC27A.png"  transform="matrix(0.24 0 0 0.24 28 49.08)">
	</image>
	<g>
		<path d="M38.3,58.5c-0.3-0.4-0.7-0.7-1.1-1c-0.3-0.1-0.6-0.2-0.9-0.3l-0.1,0.1c0.2,0.2,0.3,0.4,0.5,0.6l0.8,0.9
			c0.5,0.6,0.9,1.2,1.2,1.9C38.7,61,38.9,61,39,61c0,0,0,0,0,0l0.1-0.1C39.5,60,38.8,59.1,38.3,58.5z"/>
	</g>
</g>
<g>
	
		<image style="overflow:visible;opacity:0.75;" width="164" height="145" xlink:href="884AC265.png"  transform="matrix(0.24 0 0 0.24 23.92 49.56)">
	</image>
	<g>
		<path d="M37.6,57.6l0,0.1c0.7-0.1,1.4,1.1,1.9,1.6c0.4,0.6,0.7,1.2,0.9,1.9l-0.2,0c-0.8,0.2-1.6,0.1-2.3-0.1
			C37,61.1,36.2,61,35.4,61c-0.5,0-3,0.3-3.2-0.3l-0.1,0c-0.3,1.2,2.1,1.3,2.8,1.3c1.2-0.1,2.4,0,3.6,0.1c0.8,0.1,1.6,0.2,2-0.7l0,0
			l0.2,0.5c0.1,0.1,0.2,0.2,0.4,0.1l0.1-0.1C42,60.1,39.4,57.4,37.6,57.6z"/>
	</g>
</g>
<g>
	
		<image style="overflow:visible;opacity:0.75;" width="134" height="153" xlink:href="884AC266.png"  transform="matrix(0.24 0 0 0.24 32.8 50.52)">
	</image>
	<g>
		<path d="M42.5,61.3c-0.1-0.4-0.2-0.7-0.3-1c-0.3-0.6-0.8-0.9-1.1-1.5c0-0.1-0.2-0.1-0.2,0c0.1,0.8,0.4,1.7,0.7,2.5
			c0.2,1.2,0.3,2.4,0.6,3.6c0,0.2,0.2,0.3,0.4,0.3c0.1,0,0.2-0.1,0.3-0.3C43,63.6,42.9,62.4,42.5,61.3z"/>
	</g>
</g>
<g>
	
		<image style="overflow:visible;opacity:0.75;" width="133" height="149" xlink:href="884AC267.png"  transform="matrix(0.24 0 0 0.24 34.48 52.44)">
	</image>
	<g>
		<path d="M42.8,60.6l-0.1,0.1c0.6,0.6,0.5,1.9,0.6,2.7c0,0.8,0.1,1.6,0.2,2.5c0,0.2,0.2,0.3,0.3,0.2c0.1,0,0.2-0.1,0.2-0.2
			C44.4,64.3,44.3,61.5,42.8,60.6z"/>
	</g>
</g>
<g>
	
		<image style="overflow:visible;opacity:0.75;" width="131" height="141" xlink:href="884AC269.png"  transform="matrix(0.24 0 0 0.24 36.16 54.12)">
	</image>
	<g>
		<path d="M44.4,62.2l-0.1,0.1c0.5,1,0.8,2.2,1,3.3c0,0.2,0.4,0.2,0.4,0C45.5,64.4,45.1,63.2,44.4,62.2z"/>
	</g>
</g>
<g>
	
		<image style="overflow:visible;opacity:0.75;" width="131" height="134" xlink:href="884AC26B.png"  transform="matrix(0.24 0 0 0.24 24.16 48.84)">
	</image>
	<g>
		<path d="M33.4,56.9L33.2,57c0.1,0.6-0.5,1.1-0.8,1.6c-0.1,0.1,0,0.2,0,0.3c0,0,0,0,0,0l0.2,0C33.3,58.4,33.9,57.6,33.4,56.9z"/>
	</g>
</g>
<g>
	
		<image style="overflow:visible;opacity:0.75;" width="133" height="138" xlink:href="884AC26E.png"  transform="matrix(0.24 0 0 0.24 22.72 48.36)">
	</image>
	<g>
		<path d="M32.3,56.6c-0.5,0.8-1.7,1.6-1.6,2.7c0,0.2,0.2,0.3,0.3,0.2l0.1-0.1c0.4-0.4,0.6-0.8,0.8-1.3c0.2-0.5,0.4-1,0.4-1.5
			L32.3,56.6z"/>
	</g>
</g>
<g>
	
		<image style="overflow:visible;opacity:0.75;" width="130" height="141" xlink:href="884AC282.png"  transform="matrix(0.24 0 0 0.24 21.76 49.32)">
	</image>
	<g>
		<path d="M30.9,57.4l-0.1-0.1c-0.7,1-1.4,2.5-0.6,3.6c0.1,0.1,0.2,0.1,0.4,0l0.1-0.2c0.1-0.6,0-1.2,0.1-1.7
			C30.8,58.6,30.9,58,30.9,57.4z"/>
	</g>
</g>
<g>
	
		<image style="overflow:visible;opacity:0.75;" width="128" height="136" xlink:href="884AC281.png"  transform="matrix(0.24 0 0 0.24 21.04 51.72)">
	</image>
	<g>
		<path d="M29.3,59.8L29.3,59.8c-0.2,0.8-0.1,1.5,0.1,2.2l0.2,0.1l0.1-0.2C29.6,61.3,29.4,60.6,29.3,59.8z"/>
	</g>
</g>
<g>
	
		<image style="overflow:visible;opacity:0.75;" width="153" height="141" xlink:href="884AC28E.png"  transform="matrix(0.24 0 0 0.24 24.88 55.56)">
	</image>
	<g>
		<path d="M39.5,63.7c-2.1,0.5-4.3,0.7-6.5,0.4l-0.1,0.1c0.5,0.6,1.1,0.9,1.9,1.1c-0.2,0.3-0.3,0.6-0.4,0.8
			c-0.1,0.2-0.4,0.9-0.7,0.9c-0.1,0-0.1,0.2,0,0.2c0.4,0,0.8-0.1,1.1-0.4c0.4-0.4,0.7-0.8,1-1.3l0-0.2c1.3-0.4,2.5-0.8,3.7-1.4
			l0.1-0.1L39.5,63.7z"/>
	</g>
</g>
<g>
	
		<image style="overflow:visible;opacity:0.75;" width="132" height="135" xlink:href="884AC280.png"  transform="matrix(0.24 0 0 0.24 27.04 57.48)">
	</image>
	<g>
		<path d="M36.6,65.9c0-0.1-0.2-0.2-0.3-0.2c0,0,0,0,0,0l-0.2,0.1c-0.2,0.6-0.3,1.3-0.8,1.7l0.1,0.1c0.4-0.1,0.7-0.3,1-0.6
			C36.6,66.7,36.7,66.3,36.6,65.9z"/>
	</g>
</g>
<g>
	
		<image style="overflow:visible;opacity:0.75;" width="129" height="135" xlink:href="884AC283.png"  transform="matrix(0.24 0 0 0.24 28.48 58.92)">
	</image>
	<g>
		<path d="M37.3,67l-0.2,0c-0.2,0.7-0.8,1.3-0.5,2c0.1,0.1,0.2,0.2,0.3,0.1l0.1-0.1C37.4,68.4,37.5,67.7,37.3,67z"/>
	</g>
</g>
<g>
	
		<image style="overflow:visible;opacity:0.75;" width="129" height="132" xlink:href="884AC287.png"  transform="matrix(0.24 0 0 0.24 29.68 59.64)">
	</image>
	<g>
		<path d="M38.5,68.3c0-0.1-0.1-0.3-0.1-0.4l-0.2-0.1l-0.2,0l0,0l0,0.1l0,0.1l-0.1,0.4c-0.1,0.3,0,0.5,0.1,0.8
			c0.1,0.1,0.2,0.1,0.3,0c0,0,0,0,0,0l0,0C38.6,68.9,38.6,68.6,38.5,68.3z"/>
	</g>
</g>
<g>
	
		<image style="overflow:visible;opacity:0.75;" width="131" height="135" xlink:href="884AC286.png"  transform="matrix(0.24 0 0 0.24 31.12 59.16)">
	</image>
	<g>
		<path d="M40.3,67.4l-0.1,0l0,0.1l0,0c0.1,0.3-0.2,0.7-0.3,0.9c-0.2,0.2-0.3,0.5-0.4,0.8c0,0.1,0,0.2,0.1,0.3c0,0,0,0,0,0l0.2,0
			c0.3-0.2,0.6-0.6,0.7-1C40.5,68.1,40.5,67.7,40.3,67.4z"/>
	</g>
</g>
<g>
	
		<image style="overflow:visible;opacity:0.75;" width="130" height="133" xlink:href="884AC2BD.png"  transform="matrix(0.24 0 0 0.24 33.28 58.2)">
	</image>
	<g>
		<path d="M42.1,66.2l-0.2,0c-0.1,0.5-0.3,1-0.5,1.5c-0.1,0.2,0.2,0.4,0.4,0.3C42.5,67.6,42.4,66.9,42.1,66.2z"/>
	</g>
</g>
<g>
	
		<image style="overflow:visible;opacity:0.75;" width="130" height="143" xlink:href="884AC2BE.png"  transform="matrix(0.24 0 0 0.24 37.36 52.68)">
	</image>
	<g>
		<path d="M46.2,62.7c0-0.6,0-1.3,0.1-1.9l-0.1,0c-0.4,1.2-1.2,2.9-0.2,4c0.1,0.1,0.3,0.1,0.4,0c0.1-0.1,0.1-0.2,0.1-0.2
			C46.5,63.9,46.2,63.3,46.2,62.7z"/>
	</g>
</g>
<g>
	
		<image style="overflow:visible;opacity:0.75;" width="130" height="138" xlink:href="884AC2BF.png"  transform="matrix(0.24 0 0 0.24 39.28 51.96)">
	</image>
	<g>
		<path d="M48.2,60.1l-0.1,0c-0.5,0.8-0.7,1.8-0.5,2.8c0.1,0.1,0.2,0.2,0.4,0.1l0.1-0.1C48.5,62,48.5,61,48.2,60.1z"/>
	</g>
</g>
<g>
	
		<image style="overflow:visible;opacity:0.75;" width="131" height="139" xlink:href="884AC2A5.png"  transform="matrix(0.24 0 0 0.24 40.72 51)">
	</image>
	<g>
		<path d="M50.1,59.3l-0.1-0.1c-1,0.6-1.3,1.8-0.8,2.8l0.2,0.2c0.2,0.2,0.5,0,0.5-0.3c0-0.4-0.1-0.9-0.1-1.3
			C49.8,60.2,49.9,59.8,50.1,59.3z"/>
	</g>
</g>
<g>
	
		<image style="overflow:visible;opacity:0.75;" width="129" height="136" xlink:href="884AC2A3.png"  transform="matrix(0.24 0 0 0.24 42.88 50.28)">
	</image>
	<g>
		<path d="M51.5,58.4c-0.5,0.7-0.6,1.5-0.5,2.3c0,0.1,0.1,0.2,0.2,0.2c0,0,0,0,0,0l0.2-0.2c0-0.7,0.1-1.5,0.3-2.2
			C51.7,58.4,51.6,58.3,51.5,58.4z"/>
	</g>
</g>
<g>
	
		<image style="overflow:visible;opacity:0.75;" width="149" height="167" xlink:href="884AC29D.png"  transform="matrix(0.24 0 0 0.24 44.8 42.12)">
	</image>
	<g>
		<path d="M58.2,50.2c-0.8,1.7-1.1,3.5-1.9,5.1c-0.9,1.6-2,3.1-3.3,4.4c-0.2,0.2,0.1,0.6,0.4,0.4c1.4-1,2.6-2.3,3.4-3.9
			c0.8-1.9,1.3-3.9,1.6-6l-0.1-0.1L58.2,50.2z"/>
	</g>
</g>
<g>
	
		<image style="overflow:visible;opacity:0.75;" width="133" height="139" xlink:href="884AC29F.png"  transform="matrix(0.24 0 0 0.24 48.88 46.68)">
	</image>
	<g>
		<path d="M58.5,54.9c-0.6,1-1.1,1.9-1.5,3L57,58l0.1-0.1c0.4-1,1-2,1.5-3C58.7,54.8,58.5,54.8,58.5,54.9z"/>
	</g>
</g>
<g>
	
		<image style="overflow:visible;opacity:0.75;" width="132" height="154" xlink:href="884AC29C.png"  transform="matrix(0.24 0 0 0.24 50.56 45.24)">
	</image>
	<g>
		<path d="M59.9,53.5c-1.3,1.9-1.6,4.3-0.8,6.5c0.1,0.1,0.2,0.2,0.3,0.1c0.1,0,0.1-0.1,0.2-0.2c-0.1-2.1,0.1-4.3,0.5-6.3l-0.1-0.1
			L59.9,53.5z"/>
	</g>
</g>
<g>
	
		<image style="overflow:visible;opacity:0.75;" width="148" height="145" xlink:href="884AC2E3.png"  transform="matrix(0.24 0 0 0.24 49.12 51)">
	</image>
	<g>
		<path d="M61.8,61.5c-0.5-0.5-1.6-0.9-1.6-1.8c0-0.1-0.2-0.1-0.2,0c-0.1,0.6,0.1,1.3,0.5,1.8l0.6,0.8l-0.1,0
			c-0.8-0.2-1.5-0.4-2.2-0.8c-0.7-0.5-1.2-1.3-1.4-2.2c0-0.1-0.2-0.1-0.2,0c-0.1,1,0.2,2,0.9,2.8c0.7,0.8,1.9,1.1,2.9,0.8
			c0.2-0.1,0.2-0.2,0.2-0.4c0.2,0.3,0.4,0.6,0.6,1c0.1,0.2,0.3,0.3,0.5,0.2c0,0,0,0,0,0l0.2-0.2C62.7,62.7,62.4,61.9,61.8,61.5z"/>
	</g>
</g>
<g>
	
		<image style="overflow:visible;opacity:0.75;" width="131" height="141" xlink:href="884AC2E5.png"  transform="matrix(0.24 0 0 0.24 22 54.36)">
	</image>
	<g>
		<path d="M31.2,62.5c-0.6,1-1,2.2-1,3.3c0,0.1,0.1,0.2,0.2,0.3c0.1,0,0.2,0,0.2-0.1c0.4-1.1,0.6-2.2,0.7-3.4L31.2,62.5z"/>
	</g>
</g>
<g>
	
		<image style="overflow:visible;opacity:0.75;" width="132" height="140" xlink:href="884AC2E7.png"  transform="matrix(0.24 0 0 0.24 22.48 55.8)">
	</image>
	<g>
		<path d="M31.7,64l-0.1,0c-0.1,0.5-0.2,1-0.3,1.5c-0.1,0.6-0.4,1.1-0.6,1.6c-0.1,0.1,0,0.3,0.2,0.4c0,0,0,0,0,0l0.2,0
			C32.2,66.8,32.1,65.1,31.7,64z"/>
	</g>
</g>
<g>
	
		<image style="overflow:visible;opacity:0.75;" width="129" height="133" xlink:href="884AC2E4.png"  transform="matrix(0.24 0 0 0.24 23.92 57.96)">
	</image>
	<g>
		<path d="M32.6,66l-0.2,0c-0.1,0.5-0.2,1-0.3,1.5c-0.1,0.2,0.2,0.4,0.3,0.2C33,67.4,32.8,66.6,32.6,66z"/>
	</g>
</g>
<g>
	
		<image style="overflow:visible;opacity:0.75;" width="128" height="130" xlink:href="884AC2EC.png"  transform="matrix(0.24 0 0 0.24 25.12 59.64)">
	</image>
	<g>
		<path d="M33.6,67.7L33.6,67.7l-0.2,0c0,0.3,0,0.5-0.2,0.8c0,0.1,0.1,0.2,0.2,0.1C33.6,68.4,33.7,68,33.6,67.7z"/>
	</g>
</g>
<g>
	
		<image style="overflow:visible;opacity:0.75;" width="131" height="141" xlink:href="884AC2C8.png"  transform="matrix(0.24 0 0 0.24 22.48 59.64)">
	</image>
	<g>
		<path d="M31.7,67.9l-0.1,0L31.5,68c0.2,1-0.7,2-0.9,3c0,0.1,0.1,0.3,0.2,0.3c0.1,0,0.2,0,0.2-0.1C31.8,70.3,32.1,69,31.7,67.9z"/>
	</g>
</g>
<g>
	
		<image style="overflow:visible;opacity:0.75;" width="133" height="144" xlink:href="884AC2CB.png"  transform="matrix(0.24 0 0 0.24 22.72 61.32)">
	</image>
	<g>
		<path d="M32.4,69.3l-0.2,0c-0.3,0.7-0.6,1.5-0.9,2.2c-0.3,0.6-0.5,1.3-0.3,2c0.1,0.3,0.5,0.2,0.6,0c0.4-0.7,0.6-1.5,0.8-2.3
			C32.6,70.6,32.6,69.9,32.4,69.3z"/>
	</g>
</g>
<g>
	
		<image style="overflow:visible;opacity:0.75;" width="131" height="142" xlink:href="884AC2C9.png"  transform="matrix(0.24 0 0 0.24 24.16 63.24)">
	</image>
	<g>
		<path d="M33.2,72.6c0.1-0.4,0.3-0.9,0-1.3l-0.1,0c-0.1,0.6-0.5,1.1-0.7,1.7c-0.2,0.7-0.1,1.4,0.1,2c0.1,0.2,0.3,0.2,0.4,0.2
			c0.1,0,0.2-0.1,0.2-0.2C33.4,74.2,33.1,73.4,33.2,72.6z"/>
	</g>
</g>
<g>
	
		<image style="overflow:visible;opacity:0.75;" width="133" height="147" xlink:href="884AC2CF.png"  transform="matrix(0.24 0 0 0.24 25.6 65.16)">
	</image>
	<g>
		<path d="M35.3,77.8c-0.3-0.8-0.6-1.6-0.8-2.5c0-0.7-0.1-1.4-0.3-2.1l-0.2,0c-0.4,1.5-0.7,4,0.6,5.1C35,78.6,35.4,78.2,35.3,77.8z"
			/>
	</g>
</g>
<g>
	
		<image style="overflow:visible;opacity:0.75;" width="132" height="143" xlink:href="884AC2CA.png"  transform="matrix(0.24 0 0 0.24 27.28 66.6)">
	</image>
	<g>
		<path d="M36.9,78.5c-0.3-0.6-0.5-1.2-0.7-1.9C36,76,36,75.4,35.8,74.8c0-0.1-0.2-0.2-0.2,0c-0.3,1.2-0.4,3.3,0.8,4.1
			c0.1,0.1,0.3,0.1,0.4-0.1C36.9,78.7,36.9,78.6,36.9,78.5z"/>
	</g>
</g>
<g>
	
		<image style="overflow:visible;opacity:0.75;" width="130" height="141" xlink:href="884AC2D5.png"  transform="matrix(0.24 0 0 0.24 29.2 67.8)">
	</image>
	<g>
		<path d="M37.6,76.1L37.6,76.1h-0.2c-0.1,0.5-0.1,1.1-0.1,1.6c0,0.5,0,1.1,0.2,1.6c0.1,0.1,0.2,0.2,0.4,0.1l0.1-0.1
			C38.5,78.3,37.8,77.1,37.6,76.1z"/>
	</g>
</g>
<g>
	
		<image style="overflow:visible;opacity:0.75;" width="131" height="138" xlink:href="884AC2D6.png"  transform="matrix(0.24 0 0 0.24 30.16 68.28)">
	</image>
	<g>
		<path d="M39.3,78c0-0.5-0.1-1.1-0.2-1.6L39,76.3l-0.1,0c-0.2,0.3-0.3,0.7-0.3,1.1c0,0.5-0.2,0.9-0.2,1.3c0,0.2,0.1,0.3,0.3,0.3
			l0.1,0C39.2,78.9,39.4,78.5,39.3,78z"/>
	</g>
</g>
<g>
	
		<image style="overflow:visible;opacity:0.75;" width="134" height="142" xlink:href="884AC2D7.png"  transform="matrix(0.24 0 0 0.24 31.12 67.8)">
	</image>
	<g>
		<path d="M41.1,75.9c-0.6,0.4-0.6,1.1-0.8,1.7c-0.2,0.7-0.8,1.1-1,1.8c-0.1,0.2,0,0.4,0.2,0.4c0,0,0,0,0,0l0.2,0
			c1.8-0.3,1.4-2.5,1.6-3.8L41.1,75.9L41.1,75.9z"/>
	</g>
</g>
<g>
	
		<image style="overflow:visible;opacity:0.75;" width="133" height="141" xlink:href="884AC2D8.png"  transform="matrix(0.24 0 0 0.24 33.28 67.56)">
	</image>
	<g>
		<path d="M42.2,75.8l-0.1,0.1c0.3,0.5,0.3,1.1,0.2,1.7c-0.1,0.5-0.4,1-0.7,1.4c-0.2,0.2,0.1,0.6,0.4,0.5c0.7-0.3,1.1-1.1,1.1-1.9
			C43,76.9,42.9,76,42.2,75.8z"/>
	</g>
</g>
<g>
	
		<image style="overflow:visible;opacity:0.75;" width="134" height="143" xlink:href="884AC2DB.png"  transform="matrix(0.24 0 0 0.24 35.44 67.08)">
	</image>
	<g>
		<path d="M45.2,75.1c0-0.1-0.2-0.1-0.2,0c0.2,0.7-0.5,1.5-0.9,2.1c-0.4,0.5-0.6,1-0.7,1.6c0,0.2,0.1,0.3,0.3,0.3
			c0.1,0,0.2,0,0.3-0.1c0.5-0.6,0.9-1.3,1.2-2C45.5,76.4,45.5,75.7,45.2,75.1z"/>
	</g>
</g>
<g>
	
		<image style="overflow:visible;opacity:0.75;" width="135" height="142" xlink:href="884AC337.png"  transform="matrix(0.24 0 0 0.24 37.12 66.12)">
	</image>
	<g>
		<path d="M47.2,74.4l-0.2-0.1L47,74.4c-0.3,0.5-0.3,1.2-0.6,1.7c-0.3,0.5-0.7,1-1,1.5c-0.1,0.2,0.1,0.6,0.4,0.5
			C46.8,77.4,47.9,75.6,47.2,74.4z"/>
	</g>
</g>
<g>
	
		<image style="overflow:visible;opacity:0.75;" width="134" height="142" xlink:href="884AC335.png"  transform="matrix(0.24 0 0 0.24 39.28 65.88)">
	</image>
	<g>
		<path d="M49.1,74c-0.2,0.3-0.3,0.6-0.4,1c-0.1,0.4-0.3,0.7-0.6,1c-0.4,0.4-0.6,1-0.6,1.5c0,0.2,0.2,0.3,0.3,0.2
			c0.1,0,0.2-0.1,0.2-0.2c0.2-0.6,0.7-1,1-1.5c0.2-0.6,0.4-1.3,0.4-1.9L49.1,74L49.1,74z"/>
	</g>
</g>
<g>
	
		<image style="overflow:visible;opacity:0.75;" width="135" height="140" xlink:href="884AC333.png"  transform="matrix(0.24 0 0 0.24 40.96 65.64)">
	</image>
	<g>
		<path d="M51.1,73.7c0-0.1-0.2-0.1-0.2,0.1c0.1,0.6-0.4,1.3-0.8,1.7c-0.3,0.4-0.7,0.9-1.1,1.3c-0.2,0.2,0.1,0.5,0.3,0.3
			C50.4,76.5,51.8,74.9,51.1,73.7z"/>
	</g>
</g>
<g>
	
		<image style="overflow:visible;opacity:0.75;" width="140" height="162" xlink:href="884AC33D.png"  transform="matrix(0.24 0 0 0.24 44.08 60.12)">
	</image>
	<g>
		<path d="M55.6,68.4l-0.1-0.1c-0.6,0.5-0.4,1.5-0.6,2.2c-0.3,1-0.6,1.9-1,2.8c0-0.1,0-0.3,0-0.4l-0.1-0.1l-0.1,0.1
			c-0.2,1.3-1.5,2.1-1.4,3.6c0,0.2,0.2,0.3,0.4,0.3c0.1,0,0.2-0.1,0.3-0.3c0.1-0.5,0.3-1,0.5-1.5c0.1,0.3,0.4,0.4,0.6,0.3
			c0.1,0,0.3-0.2,0.3-0.3C55.2,72.9,55.7,70.7,55.6,68.4z"/>
	</g>
</g>
<g>
	
		<image style="overflow:visible;opacity:0.75;" width="132" height="152" xlink:href="884AC33F.png"  transform="matrix(0.24 0 0 0.24 46.96 58.68)">
	</image>
	<g>
		<path d="M56.5,67l-0.1-0.1L56.3,67l0,0c-0.2,2-0.6,3.9-1.2,5.8c-0.1,0.3,0.4,0.4,0.5,0.1C56.5,71.1,56.8,69,56.5,67z"/>
	</g>
</g>
<g>
	
		<image style="overflow:visible;opacity:0.75;" width="134" height="153" xlink:href="884AC332.png"  transform="matrix(0.24 0 0 0.24 48.64 57.96)">
	</image>
	<g>
		<path d="M58.7,68.8c0-0.8,0.1-2.2-0.7-2.7l-0.1,0l0,0.1c0.6,2-0.6,4.2-1,6.1c-0.1,0.3,0.4,0.5,0.6,0.3
			C58.3,71.6,58.8,70.2,58.7,68.8z"/>
	</g>
</g>
<g>
	
		<image style="overflow:visible;opacity:0.75;" width="130" height="141" xlink:href="884AC331.png"  transform="matrix(0.24 0 0 0.24 51.04 57.24)">
	</image>
	<g>
		<path d="M60.1,66.6c0-0.4,0-1.2-0.6-1.3l0,0.1c0.6,0.2-0.1,2.8-0.2,3.2c0,0.2,0.1,0.3,0.3,0.3c0.1,0,0.3-0.1,0.3-0.2
			C60.1,68.1,60.2,67.4,60.1,66.6z"/>
	</g>
</g>
<g>
	
		<image style="overflow:visible;opacity:0.75;" width="129" height="142" xlink:href="884AC336.png"  transform="matrix(0.24 0 0 0.24 52 55.56)">
	</image>
	<g>
		<path d="M60.5,63.7l-0.1-0.1l-0.1,0.1c-0.3,1.2-0.3,2.4-0.1,3.6c0,0.1,0.1,0.2,0.3,0.2c0.1,0,0.2-0.1,0.2-0.2
			C60.8,66,60.8,64.8,60.5,63.7z"/>
	</g>
</g>
<g>
	
		<image style="overflow:visible;opacity:0.75;" width="131" height="146" xlink:href="884AC330.png"  transform="matrix(0.24 0 0 0.24 40.96 20.28)">
	</image>
	<g>
		<path d="M50.1,28.5c-1.6,0.7-1,3.3-0.7,4.6c0.1,0.3,0.5,0.3,0.5,0c-0.2-1.5-0.1-3,0.3-4.5L50.1,28.5z"/>
	</g>
</g>
<g>
	
		<image style="overflow:visible;opacity:0.75;" width="132" height="148" xlink:href="884AC34E.png"  transform="matrix(0.24 0 0 0.24 42.16 21.48)">
	</image>
	<g>
		<path d="M51,31.7c0-0.6,0.2-1.5-0.2-2l-0.1,0c-0.6,1.7-0.4,3.5,0.5,5c0.1,0.2,0.5,0.2,0.5-0.1C51.7,33.6,51.1,32.7,51,31.7z"/>
	</g>
</g>
<g>
	
		<image style="overflow:visible;opacity:0.75;" width="133" height="135" xlink:href="884AC316.png"  transform="matrix(0.24 0 0 0.24 42.16 26.28)">
	</image>
	<g>
		<path d="M51.9,36.4c-0.5-0.7-1.1-1.3-1.6-2l-0.1,0.1c0.5,0.7,1,1.4,1.5,2C51.8,36.6,51.9,36.5,51.9,36.4z"/>
	</g>
</g>
<g>
	
		<image style="overflow:visible;opacity:0.75;" width="136" height="138" xlink:href="884AC315.png"  transform="matrix(0.24 0 0 0.24 44.8 27.96)">
	</image>
	<g>
		<path d="M54.2,37.4c-0.4-0.3-0.7-0.9-1.2-1.2c-0.1-0.1-0.2,0-0.1,0.1c0.3,0.5,0.3,1.1,0.8,1.5c0.3,0.4,0.8,0.7,1.2,1
			c0.2,0.1,0.3,0,0.4-0.2l0-0.1C55.2,37.9,54.6,37.7,54.2,37.4z"/>
	</g>
</g>
<g>
	
		<image style="overflow:visible;opacity:0.75;" width="130" height="129" xlink:href="884AC312.png"  transform="matrix(0.24 0 0 0.24 43.6 19.32)">
	</image>
	<g>
		<path d="M52.7,27.5c-0.1-0.1-0.2-0.1-0.3-0.1c-0.2,0-0.2,0.2-0.3,0.3l-0.2,0.2l-0.2,0.2l0.1,0.1c0.1,0,0.2,0,0.3,0l0.3-0.1
			C52.6,28,52.9,27.8,52.7,27.5z"/>
	</g>
</g>
<g>
	
		<image style="overflow:visible;opacity:0.75;" width="147" height="128" xlink:href="884AC36D.png"  transform="matrix(0.24 0 0 0.24 48.88 18.84)">
	</image>
	<g>
		<path d="M61.8,27c-1.6,0-3.2,0-4.8,0.2l0,0.1c1.6,0.1,3.2,0.2,4.8,0c0.1,0,0.2-0.1,0.1-0.2L61.8,27z"/>
	</g>
</g>
<g>
	
		<image style="overflow:visible;opacity:0.75;" width="160" height="149" xlink:href="884AC36E.png"  transform="matrix(0.24 0 0 0.24 56.56 19.08)">
	</image>
	<g>
		<path d="M64.7,27.3L64.7,27.3c1.7,0.3,3.3,1,4.7,2c1.1,1,2.2,2.1,3.1,3.3l0.2,0l0.1-0.1C72.2,29,67.8,27.4,64.7,27.3z"/>
	</g>
</g>
<g>
	
		<image style="overflow:visible;opacity:0.75;" width="132" height="132" xlink:href="884AC36C.png"  transform="matrix(0.24 0 0 0.24 64.72 25.32)">
	</image>
	<g>
		<path d="M74.3,34.2c-0.1-0.3-0.3-0.6-0.7-0.7l-0.4-0.1l-0.2,0l-0.1,0l0,0l-0.1,0.1l0,0l0,0.1l0,0.2l0.2,0.4l0.1,0.1l0,0l0,0.1
			l0.1,0.2l0.2,0.1c0.1,0.1,0.3,0.1,0.4,0l0,0l0,0C74.3,34.5,74.4,34.4,74.3,34.2z"/>
	</g>
</g>
<g>
	
		<image style="overflow:visible;opacity:0.75;" width="128" height="129" xlink:href="884AC372.png"  transform="matrix(0.24 0 0 0.24 64.96 27.24)">
	</image>
	<g>
		<path d="M73.6,35.6c-0.1-0.1-0.2-0.2-0.3-0.2l-0.1,0.1v0.1l0,0.2l0,0.2l0,0.1c0,0.1,0.1,0.2,0.2,0.2c0,0,0,0,0,0l0.2-0.1
			C73.7,35.9,73.7,35.7,73.6,35.6z"/>
	</g>
</g>
<g>
	
		<image style="overflow:visible;opacity:0.75;" width="140" height="140" xlink:href="884AC375.png"  transform="matrix(0.24 0 0 0.24 53.44 46.68)">
	</image>
	<g>
		<path d="M64,55c-0.6-0.3-1.2-0.2-1.7,0.2c-0.1,0.1-0.2,0.3-0.3,0.4c-0.3,0.4-0.5,0.8-0.4,1.3c0.3,0.9,1.2,1.5,2.1,1.2
			c0.2-0.1,0.4-0.1,0.5-0.3c0.7-0.6,0.9-1.6,0.3-2.4C64.5,55.3,64.3,55.1,64,55z"/>
	</g>
</g>
<g>
	
		<image style="overflow:visible;opacity:0.75;" width="145" height="146" xlink:href="884AC376.png"  transform="matrix(0.24 0 0 0.24 57.04 37.56)">
	</image>
	<g>
		<path d="M69.1,46c-0.8-0.4-1.8-0.4-2.5,0.1c-0.8,0.4-1.3,1.2-1.4,2.1c-0.1,0.8,0.2,1.7,0.7,2.3l0.1-0.1c-0.4-1.1-0.2-2.3,0.5-3.3
			c0.5-0.7,1.3-0.9,2.1-0.6c0.6,0.4,0.9,1,0.8,1.7l0.2,0.1l0.1-0.1C69.8,47.2,69.9,46.5,69.1,46z"/>
	</g>
</g>
<g>
	
		<image style="overflow:visible;opacity:0.75;" width="137" height="138" xlink:href="884AC374.png"  transform="matrix(0.24 0 0 0.24 55.6 42.84)">
	</image>
	<g>
		<path d="M65.7,51l-0.1,0.1c0.2,0.3,0.1,0.7-0.1,1c-0.3,0.2-0.6,0.4-1,0.5c-0.5,0.2-0.8,0.7-0.8,1.3l0.1,0.1l0.1-0.1
			c-0.1-0.7,0.5-0.5,1-0.6c0.4,0,0.7-0.2,1-0.4C66.7,52.2,66,51.6,65.7,51z"/>
	</g>
</g>
<g>
	
		<image style="overflow:visible;opacity:0.75;" width="141" height="151" xlink:href="884AC309.png"  transform="matrix(0.24 0 0 0.24 58.72 40.68)">
	</image>
	<g>
		<path d="M70.2,48.8c-0.1-0.2-0.3-0.1-0.4,0.1c-0.2,1.1-0.5,2.2-0.9,3.2c-0.3,0.5-0.6,1-0.9,1.4c-0.1,0.2-0.7,0.8-0.6,0.9l-0.5,0.3
			l0.1,0.1C68.9,53.9,71,51.1,70.2,48.8z"/>
	</g>
</g>
<g>
	
		<image style="overflow:visible;opacity:0.75;" width="150" height="180" xlink:href="884AC317.png"  transform="matrix(0.24 0 0 0.24 23.44 6.84)">
	</image>
	<g>
		<path d="M37.2,27.6c-0.8-0.6-1.5-1.2-2.4-1.8c-1-1-1.7-2.3-2-3.7c-0.6-2.6,0.3-5.3,2.4-7l0-0.1l-0.1,0c-2.7,0.3-3.7,4.2-3.6,6.4
			c0.4,3,2.5,5.6,5.4,6.6C37.2,28,37.4,27.8,37.2,27.6z"/>
	</g>
</g>
<g>
	
		<image style="overflow:visible;opacity:0.75;" width="149" height="164" xlink:href="884AC319.png"  transform="matrix(0.24 0 0 0.24 21.52 11.4)">
	</image>
	<g>
		<path d="M35.2,28.1c-0.9-1.1-2.3-1.7-3.3-2.9c-1-1.7-1.3-3.7-0.8-5.6L31,19.5c-1.7,2.7-0.8,6.3,1.9,8c-0.7-0.3-1.5-0.4-2-1.1
			c-0.3-0.5-0.6-1.1-1.2-1.2l0,0.1c0.3,0.1,0.4,0.9,0.5,1.2c0.1,0.3,0.2,0.6,0.3,0.8c0.6,0.7,1.5,1.1,2.4,1.3
			c0.4,0.1,0.9-0.4,0.6-0.7c0.4,0.3,0.9,0.5,1.4,0.6C35.1,28.7,35.4,28.4,35.2,28.1z"/>
	</g>
</g>
<g>
	
		<image style="overflow:visible;opacity:0.75;" width="137" height="132" xlink:href="884AC31B.png"  transform="matrix(0.24 0 0 0.24 21.52 19.8)">
	</image>
	<g>
		<path d="M32.1,28.6c-0.4,0-0.8-0.1-1.2-0.3c-0.3-0.2-0.7-0.4-1-0.5c-0.1,0-0.1,0.1-0.1,0.2c0.5,0.7,1.5,1.5,2.4,1.1
			C32.4,29.1,32.4,28.7,32.1,28.6z"/>
	</g>
</g>
<g>
	
		<image style="overflow:visible;opacity:0.75;" width="141" height="154" xlink:href="884AC318.png"  transform="matrix(0.24 0 0 0.24 26.08 5.88)">
	</image>
	<g>
		<path d="M37.7,14c-1.1,0.9-2.2,1.4-2.8,2.7c-0.6,1.2-0.8,2.5-0.6,3.8c0.1,0.3,0.6,0.5,0.7,0.1c0.2-1.2,0.6-2.3,0.9-3.5
			c0.5-1.1,1.4-1.9,1.9-3L37.7,14L37.7,14z"/>
	</g>
</g>
<g>
	
		<image style="overflow:visible;opacity:0.75;" width="145" height="145" xlink:href="884AC31F.png"  transform="matrix(0.24 0 0 0.24 26.56 15)">
	</image>
	<g>
		<path d="M39.3,27.1c-0.1-0.4-0.4-0.5-0.8-0.6c-0.5-0.2-1-0.5-1.5-0.8c-1-0.5-1.7-1.4-2.1-2.4c0-0.1-0.2-0.1-0.2,0
			c0.2,1.1,0.7,2.2,1.5,3c0.6,0.6,2,1.9,2.9,1.3C39.3,27.4,39.3,27.2,39.3,27.1z"/>
	</g>
</g>
<g>
	
		<image style="overflow:visible;opacity:0.75;" width="147" height="149" xlink:href="884AC31A.png"  transform="matrix(0.24 0 0 0.24 28.24 5.88)">
	</image>
	<g>
		<path d="M41.3,14.1c-1-0.5-2.2,0.2-2.9,0.8c-1.3,1-2.1,2.6-2.1,4.3c0,0.3,0.4,0.4,0.5,0.1c0.3-1.4,1-2.6,2-3.6
			C39.2,15.1,40.5,14,41.3,14.1L41.3,14.1z"/>
	</g>
</g>
<g>
	
		<image style="overflow:visible;opacity:0.75;" width="146" height="154" xlink:href="884AC306.png"  transform="matrix(0.24 0 0 0.24 28.24 12.36)">
	</image>
	<g>
		<path d="M41.2,26.7c-0.4-1-1.6-1.4-2.5-2c-1.5-0.8-2.3-2.4-1.9-4l-0.1-0.1l-0.1,0c-0.5,1.2-0.4,2.6,0.4,3.6
			c0.9,1.3,2.2,2.3,3.7,2.9c0.2,0.1,0.4,0,0.5-0.2c0,0,0,0,0,0L41.2,26.7z"/>
	</g>
</g>
<g>
	
		<image style="overflow:visible;opacity:0.75;" width="151" height="147" xlink:href="884AC307.png"  transform="matrix(0.24 0 0 0.24 30.16 5.64)">
	</image>
	<g>
		<path d="M44.2,13.7c-1.6-0.2-3.1,0.4-4.3,1.4c-0.9,0.9-1.5,2.1-1.5,3.4c0,0.2,0.3,0.4,0.5,0.2c0.4-0.9,0.9-1.8,1.5-2.6
			c1.1-1.1,2.4-1.8,3.9-2.1L44.2,13.7L44.2,13.7z"/>
	</g>
</g>
<g>
	
		<image style="overflow:visible;opacity:0.75;" width="146" height="157" xlink:href="884AC308.png"  transform="matrix(0.24 0 0 0.24 30.16 11.88)">
	</image>
	<g>
		<path d="M41.3,24.5c-0.6-0.5-1.1-0.9-1.7-1.5c-0.7-0.8-1-1.9-1.1-2.9l-0.1-0.1l-0.1,0.1c-0.4,1.3,0,2.7,0.9,3.7
			c0.5,0.7,1.1,1.3,1.7,1.9c0.4,0.6,0.9,1.1,1.5,1.6c0.2,0.1,0.5,0,0.5-0.2C43.1,26,42.2,25.2,41.3,24.5z"/>
	</g>
</g>
<g>
	
		<image style="overflow:visible;opacity:0.75;" width="147" height="154" xlink:href="884AC324.png"  transform="matrix(0.24 0 0 0.24 32.56 5.16)">
	</image>
	<g>
		<path d="M45.6,13.3c-0.7,0.4-1.4,1-2.1,1.4c-0.6,0.3-1.1,0.7-1.6,1.1c-1,1.1-1.4,2.5-1.1,3.9c0,0.2,0.2,0.3,0.3,0.2
			c0.1,0,0.2-0.1,0.2-0.2c0.1-1.5,0.8-2.9,1.9-3.9c0.5-0.4,1-0.6,1.4-1C45,14.4,45.4,13.9,45.6,13.3L45.6,13.3z"/>
	</g>
</g>
<g>
	
		<image style="overflow:visible;opacity:0.75;" width="139" height="153" xlink:href="884AC327.png"  transform="matrix(0.24 0 0 0.24 33.28 13.08)">
	</image>
	<g>
		<path d="M43.7,25.1c-0.6-0.4-1-1-1.4-1.6c-0.2-0.7-0.4-1.4-0.5-2.1l-0.1-0.1l-0.1,0.1c-0.3,1-0.2,2.1,0.3,3.1
			c0.7,0.9,1.3,1.9,1.9,2.9c0.1,0.2,0.3,0.3,0.5,0.2l0.2-0.2C44.7,26.5,44.4,25.6,43.7,25.1z"/>
	</g>
</g>
<g>
	
		<image style="overflow:visible;opacity:0.75;" width="139" height="144" xlink:href="884AC325.png"  transform="matrix(0.24 0 0 0.24 35.68 5.4)">
	</image>
	<g>
		<path d="M46.8,13.4c-0.6,0.5-1,1.2-1.4,1.8c-0.5,0.7-1,1.4-1.5,2.1c-0.2,0.2,0.1,0.6,0.4,0.4c0.7-0.6,1.3-1.2,1.7-2
			c0.5-0.6,0.8-1.4,1-2.2L46.8,13.4z"/>
	</g>
</g>
<g>
	
		<image style="overflow:visible;opacity:0.75;" width="138" height="153" xlink:href="884AC323.png"  transform="matrix(0.24 0 0 0.24 36.16 12.36)">
	</image>
	<g>
		<path d="M46.5,24.5c-1-1.1-1.6-2.5-1.7-4c0-0.1-0.2-0.1-0.2,0c-1.1,2.4,0.9,4.3,2,6.3c0.1,0.2,0.5,0.3,0.6,0
			C47.3,25.9,47.1,25.1,46.5,24.5z"/>
	</g>
</g>
<g>
	
		<image style="overflow:visible;opacity:0.75;" width="139" height="153" xlink:href="884AC32C.png"  transform="matrix(0.24 0 0 0.24 37.84 11.88)">
	</image>
	<g>
		<path d="M48.2,24.1c-1-1.2-1.8-2.6-2.1-4.1L46,20L45.9,20c-0.4,2.5,1.5,4.4,2.6,6.4c0.1,0.2,0.4,0.1,0.5-0.1
			C49.4,25.5,48.7,24.7,48.2,24.1z"/>
	</g>
</g>
<g>
	
		<image style="overflow:visible;opacity:0.75;" width="145" height="152" xlink:href="884AC32F.png"  transform="matrix(0.24 0 0 0.24 39.04 12.36)">
	</image>
	<g>
		<path d="M50.3,24.1c-1.2-0.9-2.2-2.1-2.9-3.5c0-0.1-0.2-0.1-0.2,0.1c0.9,2.3,2.3,4.3,4,6c0.1,0.1,0.3,0.2,0.5,0l0.1-0.2
			C52,25.4,51,24.8,50.3,24.1z"/>
	</g>
</g>
<g>
	
		<image style="overflow:visible;opacity:0.75;" width="155" height="151" xlink:href="884AC32D.png"  transform="matrix(0.24 0 0 0.24 40.96 12.36)">
	</image>
	<g>
		<path d="M56,25.9c-0.9-0.7-1.8-1.6-2.7-2.3c-1.4-0.9-2.7-2-3.9-3.2c-0.1-0.1-0.2,0-0.2,0.1c0.8,1.6,2,2.9,3.4,3.9
			c1,0.9,1.8,2.2,3.2,2.1c0.2,0,0.3-0.2,0.3-0.4L56,25.9z"/>
	</g>
</g>
<g>
	
		<image style="overflow:visible;opacity:0.75;" width="158" height="157" xlink:href="884AC322.png"  transform="matrix(0.24 0 0 0.24 42.64 10.44)">
	</image>
	<g>
		<path d="M55.1,22.6c-0.9-0.6-1.7-1.2-2.5-1.9c-0.5-0.5-1.6-1.2-1.6-1.9l-0.1-0.1c-0.6,1,1.2,2.6,1.8,3.3c1.7,1.5,3.4,2.8,5.3,4
			c0.1,0.1,0.4,0.1,0.5-0.1c0,0,0,0,0,0l0.1-0.2C58.3,24.1,56.2,23.3,55.1,22.6z"/>
	</g>
</g>
<g>
	
		<image style="overflow:visible;opacity:0.75;" width="158" height="149" xlink:href="884AC326.png"  transform="matrix(0.24 0 0 0.24 45.28 12.12)">
	</image>
	<g>
		<path d="M58.6,22.9c-1.7-0.8-3.4-1.7-5-2.7l-0.1,0.1c1.1,1,2.2,2,3.5,2.7c0.6,0.4,1.2,0.8,1.8,1.2c0.6,0.4,1.1,1,1.7,1.5
			c0.2,0.1,0.4,0.1,0.5-0.1c0.1-0.1,0.1-0.2,0.1-0.3C61,24.1,59.6,23.5,58.6,22.9z"/>
	</g>
</g>
<g>
	
		<image style="overflow:visible;opacity:0.75;" width="157" height="149" xlink:href="884AC321.png"  transform="matrix(0.24 0 0 0.24 48.16 12.12)">
	</image>
	<g>
		<path d="M61.1,22.3c-1.4-1-3-1.7-4.7-2l-0.1,0.1l0.1,0.1c1.3,0.7,2.6,1.7,3.9,2.5c0.5,0.3,1,0.7,1.5,1.1c0.5,0.5,0.9,1.1,1.4,1.5
			c0.2,0.1,0.4,0.1,0.5-0.1c0,0,0,0,0,0l0.1-0.2C64.1,24,62.1,22.9,61.1,22.3z"/>
	</g>
</g>
<g>
	
		<image style="overflow:visible;opacity:0.75;" width="164" height="154" xlink:href="884AC3C3.png"  transform="matrix(0.24 0 0 0.24 49.12 10.92)">
	</image>
	<g>
		<path d="M63.5,22.1c-1.9-1.1-4.2-1.8-6.1-3l-0.1,0l0,0.1c1.4,1.1,2.9,2.2,4.6,3c1.4,0.9,2.6,2,3.6,3.4c0.2,0.2,0.5,0.2,0.7,0.1
			c0.1-0.1,0.2-0.2,0.2-0.3C66.4,23.8,64.7,22.8,63.5,22.1z"/>
	</g>
</g>
<g>
	
		<image style="overflow:visible;opacity:0.75;" width="169" height="167" xlink:href="884AC3C1.png"  transform="matrix(0.24 0 0 0.24 51.04 9.48)">
	</image>
	<g>
		<path d="M66.6,21.4c-2-2-4.5-3.4-7.3-3.9l-0.1,0.1l0.1,0.1c2.3,0.9,4.3,2.3,6.1,4c-1.6-1.2-3.5-2-5.4-2.5l-0.1,0l0,0.1
			c1.8,0.8,3.6,1.9,5.1,3.2c1.1,1,1.6,2.9,3,3.6c0.1,0,0.2,0,0.3,0c0.1,0.4,0.2,0.8,0.3,1.2c0,0.2,0.2,0.3,0.4,0.3
			c0.1,0,0.2-0.1,0.3-0.2C70.4,25.3,67.8,22.8,66.6,21.4z"/>
	</g>
</g>
<g>
	
		<image style="overflow:visible;opacity:0.75;" width="136" height="146" xlink:href="884AC3C7.png"  transform="matrix(0.24 0 0 0.24 60.64 14.76)">
	</image>
	<g>
		<path d="M71,25c-0.5-1-1.3-1.7-2.2-2.3l-0.1,0.1c0.6,0.6,1.2,1.3,1.5,2.1c0.3,0.9-0.2,1.7-0.3,2.5c0,0.1,0.1,0.2,0.2,0.2l0.1,0
			C71,27.1,71.3,26,71,25z"/>
	</g>
</g>
<g>
	
		<image style="overflow:visible;opacity:0.75;" width="133" height="137" xlink:href="884AC3C2.png"  transform="matrix(0.24 0 0 0.24 62.56 17.88)">
	</image>
	<g>
		<path d="M72.3,26.8c-0.1-0.3-0.2-0.5-0.3-0.8l-0.1-0.1L71.8,26c-0.1,0.4-0.3,0.8-0.5,1.1c-0.2,0.3-0.4,0.6-0.6,0.9
			c-0.1,0.2-0.1,0.4,0.1,0.5c0,0,0,0,0,0l0.1,0c0.6,0.3,1.2-0.3,1.3-0.8C72.3,27.4,72.3,27.1,72.3,26.8z"/>
	</g>
</g>
<g>
	
		<image style="overflow:visible;opacity:0.75;" width="131" height="131" xlink:href="884AC3FD.png"  transform="matrix(0.24 0 0 0.24 63.76 19.8)">
	</image>
	<g>
		<path d="M72.9,28l-0.6,0.2l-0.3,0.2c-0.1,0.1-0.2,0.2-0.2,0.3c-0.1,0.1,0,0.3,0.1,0.3c0.3,0.1,0.6,0,0.8-0.3
			c0.1-0.2,0.2-0.4,0.2-0.7L72.9,28z"/>
	</g>
</g>
<g>
	
		<image style="overflow:visible;opacity:0.75;" width="130" height="129" xlink:href="884AC3FE.png"  transform="matrix(0.24 0 0 0.24 64.24 21.24)">
	</image>
	<g>
		<path d="M73.4,29.5L73.4,29.5l-0.1-0.1l0,0c-0.1,0-0.2,0-0.3,0.1c-0.1,0.1-0.3,0.2-0.4,0.3c-0.1,0.1-0.1,0.2,0,0.3l0.1,0.1
			c0.2,0,0.4,0,0.6-0.2C73.3,29.8,73.4,29.6,73.4,29.5z"/>
	</g>
</g>
<g>
	
		<image style="overflow:visible;opacity:0.75;" width="131" height="148" xlink:href="884AC3FF.png"  transform="matrix(0.24 0 0 0.24 38.56 5.64)">
	</image>
	<g>
		<path d="M47.7,13.7c-1.1,1.5-1.3,3.5-0.6,5.2c0.1,0.2,0.5,0.2,0.5-0.1c-0.3-1.7-0.2-3.4,0.3-5.1C47.9,13.7,47.7,13.6,47.7,13.7z"
			/>
	</g>
</g>
<g>
	
		<image style="overflow:visible;opacity:0.75;" width="131" height="144" xlink:href="884AC3C4.png"  transform="matrix(0.24 0 0 0.24 39.76 6.12)">
	</image>
	<g>
		<path d="M48.8,16.8c-0.3-0.8-0.4-1.7-0.5-2.5l-0.1-0.1l-0.1,0.1c-0.3,1.4-0.1,2.9,0.5,4.2c0.1,0.1,0.3,0.1,0.4,0l0.1-0.1
			C49.2,17.9,49.1,17.3,48.8,16.8z"/>
	</g>
</g>
<g>
	
		<image style="overflow:visible;opacity:0.75;" width="133" height="141" xlink:href="884AC3C5.png"  transform="matrix(0.24 0 0 0.24 40.72 5.88)">
	</image>
	<g>
		<path d="M49,14c0-0.1-0.2-0.1-0.2,0c0,1.2,0.4,2.4,1.2,3.3c0.1,0.2,0.4,0.2,0.4-0.1C50.5,16.1,49.1,15.3,49,14z"/>
	</g>
</g>
<g>
	
		<image style="overflow:visible;opacity:0.75;" width="141" height="143" xlink:href="884AC3C6.png"  transform="matrix(0.24 0 0 0.24 41.44 5.88)">
	</image>
	<g>
		<path d="M53.3,17.7c-0.4-0.7-0.9-1.3-1.6-1.7c-0.7-0.6-1.3-1.3-2-2l-0.1,0.1c0.5,0.8,1,1.5,1.5,2.3c0.5,0.6,1.1,1.1,1.8,1.6
			c0.1,0.1,0.3,0.1,0.4-0.1C53.3,17.8,53.3,17.7,53.3,17.7z"/>
	</g>
</g>
<g>
	
		<image style="overflow:visible;opacity:0.75;" width="143" height="140" xlink:href="B2CE1AE1.png"  transform="matrix(0.24 0 0 0.24 43.12 6.12)">
	</image>
	<g>
		<path d="M55.2,17.3c-0.9-1.5-2.3-2.5-4-3c-0.1,0-0.1,0.2,0,0.2c1.5,0.6,2.4,2.2,3.7,3.2c0.1,0.1,0.3,0.1,0.4-0.1
			C55.3,17.5,55.3,17.4,55.2,17.3z"/>
	</g>
</g>
<g>
	
		<image style="overflow:visible;opacity:0.75;" width="146" height="141" xlink:href="B2CE1AE3.png"  transform="matrix(0.24 0 0 0.24 45.28 6.12)">
	</image>
	<g>
		<path d="M56.5,15.2c-0.9-0.6-2-0.9-3.1-1l-0.1,0.1l0.1,0.1c0.9,0.4,1.7,0.9,2.5,1.4c0.8,0.5,1.2,1.3,1.9,1.8
			c0.1,0.1,0.3,0.1,0.4-0.1c0,0,0,0,0,0l0.1-0.1C58.3,16.5,57.3,15.7,56.5,15.2z"/>
	</g>
</g>
<g>
	
		<image style="overflow:visible;opacity:0.75;" width="147" height="138" xlink:href="B2CE1AE0.png"  transform="matrix(0.24 0 0 0.24 48.88 6.84)">
	</image>
	<g>
		<path d="M62,17.5c-1.5-1.1-3.1-2-4.8-2.6C57,14.8,57,15,57.1,15.1c1.6,0.7,3.1,1.9,4.6,2.8c0.1,0.1,0.3,0.1,0.3,0
			C62.1,17.7,62.1,17.6,62,17.5z"/>
	</g>
</g>
<g>
	
		<image style="overflow:visible;opacity:0.75;" width="130" height="136" xlink:href="B2CE1AEF.png"  transform="matrix(0.24 0 0 0.24 44.08 21)">
	</image>
	<g>
		<path d="M53,29.8l-0.1-0.1l-0.1,0c-0.1-0.2-0.1-0.4-0.3-0.6l-0.2,0c-0.2,0.3-0.2,0.7-0.2,1.1c0,0.4,0,0.8,0.2,1.2
			c0.1,0.2,0.2,0.2,0.4,0.2c0,0,0,0,0,0l0.2-0.2c0.1-0.2,0.1-0.5,0.1-0.7C53.1,30.4,53.1,30.1,53,29.8z"/>
	</g>
</g>
<g>
	
		<image style="overflow:visible;opacity:0.75;" width="127" height="132" xlink:href="B2CE1AE2.png"  transform="matrix(0.24 0 0 0.24 47.2 21)">
	</image>
	<g>
		<path d="M55.5,29.3l-0.1-0.1l-0.1,0.1c0,0.4,0,0.7-0.1,1.1c0,0.2,0.2,0.2,0.3,0.1C55.6,30.1,55.6,29.7,55.5,29.3z"/>
	</g>
</g>
<g>
	
		<image style="overflow:visible;opacity:0.75;" width="129" height="132" xlink:href="B2CE1AE6.png"  transform="matrix(0.24 0 0 0.24 45.28 24.6)">
	</image>
	<g>
		<path d="M53.9,32.7l-0.2-0.1l-0.1,0.1c-0.2,0.4-0.2,0.9-0.1,1.4c0,0.2,0.3,0.3,0.4,0C54.1,33.7,54,33.2,53.9,32.7z"/>
	</g>
</g>
<g>
	
		<image style="overflow:visible;opacity:0.75;" width="128" height="132" xlink:href="B2CE1AE7.png"  transform="matrix(0.24 0 0 0.24 47.2 23.88)">
	</image>
	<g>
		<path d="M55.6,32.1c-0.1-0.1-0.2-0.1-0.2,0.1c0,0.2,0,0.4,0,0.6c0,0.2,0,0.4,0,0.6l0.2,0.1l0.1-0.1C55.8,32.9,55.8,32.5,55.6,32.1
			z"/>
	</g>
</g>
<g>
	
		<image style="overflow:visible;opacity:0.75;" width="129" height="132" xlink:href="B2CE1AFC.png"  transform="matrix(0.24 0 0 0.24 46.96 27)">
	</image>
	<g>
		<path d="M55.4,35.1l-0.2,0c-0.1,0.2-0.1,0.4-0.1,0.6c0,0.2,0,0.4,0.1,0.6c0,0.1,0.2,0.2,0.3,0.1c0,0,0,0,0,0l0.1-0.1
			C55.8,35.9,55.7,35.4,55.4,35.1z"/>
	</g>
</g>
<g>
	
		<image style="overflow:visible;opacity:0.75;" width="128" height="131" xlink:href="B2CE1AFD.png"  transform="matrix(0.24 0 0 0.24 48.88 28.92)">
	</image>
	<g>
		<path d="M57.5,38.1c-0.1-0.3-0.1-0.6-0.2-0.9L57.2,37l-0.1,0.1c-0.1,0.3-0.1,0.7,0.1,1C57.3,38.3,57.6,38.2,57.5,38.1z"/>
	</g>
</g>
<g>
	
		<image style="overflow:visible;opacity:0.75;" width="127" height="130" xlink:href="B2CE1AFE.png"  transform="matrix(0.24 0 0 0.24 51.04 30.84)">
	</image>
	<g>
		<path d="M59.5,39.7c-0.1-0.2-0.1-0.4-0.1-0.6L59.2,39l-0.1,0.1c0,0.2,0,0.5,0.1,0.7C59.3,39.9,59.5,39.8,59.5,39.7z"/>
	</g>
</g>
<g>
	
		<image style="overflow:visible;opacity:0.75;" width="128" height="132" xlink:href="B2CE1AC4.png"  transform="matrix(0.24 0 0 0.24 57.28 23.4)">
	</image>
	<g>
		<path d="M65.9,32.1c0-0.2-0.2-0.4-0.3-0.5l-0.1,0.1l0,0.2l0,0.4c0,0.2,0,0.4,0.1,0.7c0,0.1,0.1,0.1,0.2,0.1c0,0,0,0,0,0l0.1-0.1
			C66,32.7,65.9,32.4,65.9,32.1z"/>
	</g>
</g>
<g>
	
		<image style="overflow:visible;opacity:0.75;" width="128" height="131" xlink:href="B2CE1ADB.png"  transform="matrix(0.24 0 0 0.24 59.44 21.72)">
	</image>
	<g>
		<path d="M67.9,30.4c-0.1-0.2-0.1-0.4-0.2-0.6l-0.2,0c-0.1,0.4-0.1,0.9,0.1,1.2l0.2,0.1L68,31C68,30.8,68,30.6,67.9,30.4z"/>
	</g>
</g>
<g>
	
		<image style="overflow:visible;opacity:0.75;" width="128" height="132" xlink:href="B2CE1ADC.png"  transform="matrix(0.24 0 0 0.24 61.36 23.4)">
	</image>
	<g>
		<path d="M69.7,31.7c0-0.1-0.2-0.1-0.2,0c0,0.4,0.3,0.8,0.3,1.2l0.1,0.1l0.1-0.1C70,32.4,69.7,32.1,69.7,31.7z"/>
	</g>
</g>
<g>
	
		<image style="overflow:visible;opacity:0.75;" width="128" height="130" xlink:href="B2CE1ADF.png"  transform="matrix(0.24 0 0 0.24 59.68 25.32)">
	</image>
	<g>
		<path d="M68,33.5l-0.1,0l-0.1,0.1c0.1,0.2,0.1,0.5,0.1,0.7c0,0.1,0.2,0.1,0.2,0C68.2,34,68.1,33.8,68,33.5z"/>
	</g>
</g>
<g>
	
		<image style="overflow:visible;opacity:0.75;" width="128" height="132" xlink:href="B2CE1ADD.png"  transform="matrix(0.24 0 0 0.24 62.56 27.24)">
	</image>
	<g>
		<path d="M70.9,35.4l-0.2,0l0,0.1c0,0.4,0.2,0.9,0.2,1.3c0,0.2,0.3,0.2,0.4,0C71.3,36.3,71.2,35.8,70.9,35.4z"/>
	</g>
</g>
<g>
	
		<image style="overflow:visible;opacity:0.75;" width="128" height="131" xlink:href="B2CE1ADA.png"  transform="matrix(0.24 0 0 0.24 61.36 29.4)">
	</image>
	<g>
		<path d="M70,37.7l-0.1-0.1l-0.1,0.1l-0.2,0.5c0,0.2,0,0.4,0,0.5c0,0.1,0.1,0.2,0.2,0.1c0,0,0,0,0,0l0.1-0.1
			c0.1-0.1,0.1-0.3,0.1-0.5C70,38,70,37.8,70,37.7z"/>
	</g>
</g>
<g>
	
		<image style="overflow:visible;opacity:0.75;" width="127" height="131" xlink:href="B2CE1AC5.png"  transform="matrix(0.24 0 0 0.24 63.04 31.32)">
	</image>
	<g>
		<path d="M71.3,39.5c-0.1-0.1-0.2-0.1-0.2,0.1c0,0.3,0,0.7,0,1l0.1,0.2l0.1-0.1C71.5,40.2,71.5,39.8,71.3,39.5z"/>
	</g>
</g>
<g>
	
		<image style="overflow:visible;opacity:0.75;" width="128" height="130" xlink:href="B2CE1AC7.png"  transform="matrix(0.24 0 0 0.24 55.84 21)">
	</image>
	<g>
		<path d="M64.1,29.3C64,29.5,64,29.8,64,30.1c0,0.1,0.2,0.1,0.2,0c0-0.2,0-0.5,0.1-0.7C64.4,29.2,64.2,29.2,64.1,29.3z"/>
	</g>
</g>
<g>
	
		<image style="overflow:visible;opacity:0.75;" width="130" height="136" xlink:href="B2CE1ACA.png"  transform="matrix(0.24 0 0 0.24 52.24 19.8)">
	</image>
	<g>
		<path d="M61.2,29.1L61.2,29.1c0-0.5-0.1-0.9-0.3-1.2l-0.2,0l-0.1,0L60.5,28l0,0.1c-0.1,0.3-0.2,0.6-0.2,1
			c-0.1,0.4-0.1,0.8,0.2,1.2c0.1,0.1,0.3,0.1,0.4,0c0,0,0,0,0,0l0-0.1c0.1-0.2,0.2-0.4,0.2-0.6l0.1-0.1
			C61.3,29.4,61.3,29.2,61.2,29.1z"/>
	</g>
</g>
<g>
	
		<image style="overflow:visible;opacity:0.75;" width="130" height="132" xlink:href="B2CE1ACB.png"  transform="matrix(0.24 0 0 0.24 57.04 27.24)">
	</image>
	<g>
		<path d="M65.9,35.9c-0.1-0.2-0.3-0.3-0.5-0.5c-0.1-0.1-0.3,0-0.2,0.1c0.2,0.3,0.3,0.7,0.3,1c0,0.1,0.1,0.2,0.3,0.2l0,0l0.2-0.1
			C66.1,36.4,66.1,36.1,65.9,35.9z"/>
	</g>
</g>
<g>
	
		<image style="overflow:visible;opacity:0.75;" width="128" height="130" xlink:href="B2CE1AB7.png"  transform="matrix(0.24 0 0 0.24 59.68 29.64)">
	</image>
	<g>
		<path d="M68.1,37.8H68c-0.2,0.2-0.1,0.6,0,0.9c0,0.2,0.3,0.2,0.3,0C68.3,38.3,68.3,38,68.1,37.8z"/>
	</g>
</g>
<g>
	
		<image style="overflow:visible;opacity:0.75;" width="127" height="131" xlink:href="B2CE1AA9.png"  transform="matrix(0.24 0 0 0.24 62.32 33.72)">
	</image>
	<g>
		<path d="M70.5,41.9c-0.1,0.3-0.1,0.7-0.1,1c0,0.1,0.2,0.1,0.2,0c0-0.3,0-0.7,0.1-1C70.7,41.8,70.5,41.8,70.5,41.9z"/>
	</g>
</g>
<g>
	
		<image style="overflow:visible;opacity:0.75;" width="129" height="130" xlink:href="B2CE1AAB.png"  transform="matrix(0.24 0 0 0.24 63.28 35.16)">
	</image>
	<g>
		<path d="M71.8,43.4l-0.2,0.3l-0.1,0.4c-0.1,0.2,0.3,0.3,0.3,0.1l0.1-0.3l0.1-0.3L72,43.4L71.8,43.4z"/>
	</g>
</g>
<g>
	
		<image style="overflow:visible;opacity:0.75;" width="128" height="131" xlink:href="B2CE1AAE.png"  transform="matrix(0.24 0 0 0.24 53.92 29.64)">
	</image>
	<g>
		<path d="M62.3,37.8l-0.2-0.1l-0.1,0.1c0,0.4,0,0.7,0.1,1.1c0,0.1,0.1,0.2,0.2,0.1h0l0.1-0.1C62.6,38.5,62.5,38.1,62.3,37.8z"/>
	</g>
</g>
<g>
	
		<image style="overflow:visible;opacity:0.75;" width="128" height="131" xlink:href="B2CE1AAF.png"  transform="matrix(0.24 0 0 0.24 51.52 25.56)">
	</image>
	<g>
		<path d="M59.8,33.6c-0.2,0.4-0.3,0.8-0.2,1.3l0.2,0.1l0.1-0.1c0.1-0.4,0-0.8,0.1-1.2C60,33.6,59.9,33.5,59.8,33.6z"/>
	</g>
</g>
<g>
	
		<image style="overflow:visible;opacity:0.75;" width="128" height="130" xlink:href="B2CE1AAA.png"  transform="matrix(0.24 0 0 0.24 50.08 21.96)">
	</image>
	<g>
		<path d="M58.5,30.1l-0.2,0.2l-0.1,0.1l-0.1,0.1c-0.1,0.1-0.1,0.2,0,0.3c0,0,0,0,0,0l0,0c0.1,0.1,0.2,0.1,0.3,0l0,0l0.1-0.3l0-0.4
			C58.7,30.1,58.6,30,58.5,30.1z"/>
	</g>
</g>
<g>
	
		<image style="overflow:visible;opacity:0.75;" width="128" height="130" xlink:href="B2CE1A55.png"  transform="matrix(0.24 0 0 0.24 54.16 23.16)">
	</image>
	<g>
		<path d="M62.8,31.9l0-0.1l0-0.2l-0.1-0.3l-0.1-0.1l-0.1,0.1l-0.1,0.3l0,0.2l0,0.1c-0.1,0.1-0.1,0.2,0,0.3c0.1,0.1,0.2,0.1,0.3,0
			L62.8,31.9L62.8,31.9z"/>
	</g>
</g>
<g>
	
		<image style="overflow:visible;opacity:0.75;" width="127" height="130" xlink:href="B2CE1A56.png"  transform="matrix(0.24 0 0 0.24 54.16 26.04)">
	</image>
	<g>
		<path d="M62.5,34.3l-0.1-0.1l-0.1,0.1c0,0.3,0,0.5,0,0.8l0.1,0.1l0.1-0.1C62.5,34.8,62.5,34.6,62.5,34.3z"/>
	</g>
</g>
<g>
	
		<image style="overflow:visible;opacity:0.75;" width="127" height="129" xlink:href="B2CE1A57.png"  transform="matrix(0.24 0 0 0.24 52.24 29.16)">
	</image>
	<g>
		<path d="M60.5,37.2l-0.2,0c-0.1,0.2-0.1,0.5-0.1,0.7l0.2,0.1l0.1-0.1C60.6,37.7,60.6,37.4,60.5,37.2z"/>
	</g>
</g>
<g>
	
		<image style="overflow:visible;opacity:0.75;" width="128" height="130" xlink:href="B2CE1A59.png"  transform="matrix(0.24 0 0 0.24 55.36 32.52)">
	</image>
	<g>
		<path d="M64,41.4c-0.1-0.2-0.2-0.4-0.4-0.6c-0.1-0.1-0.2,0-0.1,0.1c0.2,0.2,0.3,0.4,0.4,0.6C63.9,41.5,64.1,41.5,64,41.4z"/>
	</g>
</g>
<g>
	
		<image style="overflow:visible;opacity:0.75;" width="128" height="130" xlink:href="B2CE1A76.png"  transform="matrix(0.24 0 0 0.24 58.24 31.8)">
	</image>
	<g>
		<path d="M66.8,40.6c-0.1-0.2-0.2-0.4-0.3-0.7c0-0.1-0.2-0.2-0.2,0c0,0.3,0.1,0.6,0.3,0.8C66.6,40.8,66.9,40.8,66.8,40.6z"/>
	</g>
</g>
<g>
	
		<image style="overflow:visible;opacity:0.75;" width="129" height="130" xlink:href="B2CE1A71.png"  transform="matrix(0.24 0 0 0.24 52 32.28)">
	</image>
	<g>
		<path d="M60.4,40.5l-0.2,0l0,0.1c0.1,0.3,0.1,0.6,0.4,0.7c0.1,0,0.2,0,0.2-0.1c0,0,0,0,0,0l0,0C60.8,40.9,60.5,40.7,60.4,40.5z"/>
	</g>
</g>
<g>
	
		<image style="overflow:visible;opacity:0.75;" width="128" height="131" xlink:href="B2CE1A72.png"  transform="matrix(0.24 0 0 0.24 50.8 27.72)">
	</image>
	<g>
		<path d="M59.1,36c-0.1-0.1-0.3,0-0.2,0.1c0.1,0.3,0.2,0.6,0.3,0.9l0.1,0.1l0.1-0.1C59.4,36.7,59.3,36.3,59.1,36z"/>
	</g>
</g>
<g>
	
		<image style="overflow:visible;opacity:0.75;" width="128" height="131" xlink:href="B2CE1A70.png"  transform="matrix(0.24 0 0 0.24 46.24 19.32)">
	</image>
	<g>
		<path d="M54.9,27.7l-0.1-0.2c0-0.1-0.2-0.1-0.2,0l-0.1,0.2L54.4,28c-0.1,0.1-0.1,0.3-0.1,0.5c0,0.1,0.1,0.2,0.2,0.2c0,0,0,0,0,0
			l0.2-0.1l0.1-0.3l0.1-0.3L54.9,27.7z"/>
	</g>
</g>
<g>
	
		<image style="overflow:visible;opacity:0.75;" width="128" height="131" xlink:href="B2CE1A7E.png"  transform="matrix(0.24 0 0 0.24 48.88 20.04)">
	</image>
	<g>
		<path d="M57.4,28.6l-0.1-0.3l-0.1-0.1l-0.1,0.1L57,28.7l-0.1,0.4c0,0.1,0.1,0.2,0.2,0.2l0.2-0.1c0.1-0.1,0.2-0.3,0.2-0.5
			L57.4,28.6z"/>
	</g>
</g>
<g>
	
		<image style="overflow:visible;opacity:0.75;" width="129" height="133" xlink:href="B2CE1A73.png"  transform="matrix(0.24 0 0 0.24 48.88 25.08)">
	</image>
	<g>
		<path d="M57.7,33.8l-0.1-0.3l-0.2-0.2c0-0.1-0.2-0.1-0.2,0l-0.1,0.2c0,0.1,0,0.3,0,0.4c0,0.2,0.1,0.5,0.2,0.7
			c0.1,0.1,0.3,0.1,0.4,0l0.1-0.2C57.8,34.3,57.8,34.1,57.7,33.8z"/>
	</g>
</g>
<g>
	
		<image style="overflow:visible;opacity:0.75;" width="129" height="129" xlink:href="B2CE1A77.png"  transform="matrix(0.24 0 0 0.24 45.28 27)">
	</image>
	<g>
		<path d="M54,35.7c-0.1-0.2-0.2-0.3-0.3-0.5c0-0.1-0.2-0.1-0.2,0.1c0.1,0.3,0.1,0.5,0.3,0.7l0.2,0V35.7z"/>
	</g>
</g>
<g>
	
		<image style="overflow:visible;opacity:0.75;" width="131" height="132" xlink:href="B2CE1A75.png"  transform="matrix(0.24 0 0 0.24 54.4 19.56)">
	</image>
	<g>
		<path d="M63.6,27.9c0-0.1-0.2-0.3-0.4-0.1c-0.3,0.3-0.6,0.6-0.7,1c0,0.1,0.1,0.3,0.2,0.3l0.2,0C63.3,28.8,63.7,28.4,63.6,27.9z"/>
	</g>
</g>
<g>
	
		<image style="overflow:visible;opacity:0.75;" width="128" height="130" xlink:href="B2CE1A6C.png"  transform="matrix(0.24 0 0 0.24 51.76 23.4)">
	</image>
	<g>
		<path d="M60.2,31.5C60,31.7,59.9,32,60,32.3c0,0.2,0.4,0.2,0.4,0c0-0.2,0-0.4,0.1-0.6l-0.1-0.2L60.2,31.5z"/>
	</g>
</g>
<g>
	
		<image style="overflow:visible;opacity:0.75;" width="129" height="130" xlink:href="B2CE1A6D.png"  transform="matrix(0.24 0 0 0.24 53.68 32.04)">
	</image>
	<g>
		<path d="M62.2,40.4c-0.1,0-0.2-0.1-0.3-0.2c-0.1-0.1-0.2-0.1-0.2,0.1c0,0.2,0.1,0.6,0.3,0.7c0.1,0.1,0.3,0.1,0.4-0.1l0-0.2
			C62.4,40.6,62.3,40.4,62.2,40.4z"/>
	</g>
</g>
<g>
	
		<image style="overflow:visible;opacity:0.75;" width="128" height="128" xlink:href="B2CE1B95.png"  transform="matrix(0.24 0 0 0.24 56.56 30.36)">
	</image>
	<g>
		<circle cx="64.8" cy="38.6" r="0.2"/>
	</g>
</g>
<g>
	
		<image style="overflow:visible;opacity:0.75;" width="127" height="129" xlink:href="B2CE1B97.png"  transform="matrix(0.24 0 0 0.24 55.12 27.96)">
	</image>
	<g>
		<path d="M63.6,36.2L63.4,36l-0.1,0.1l0,0.5c0,0.1,0.2,0.1,0.3,0C63.6,36.5,63.6,36.3,63.6,36.2z"/>
	</g>
</g>
<g>
	
		<image style="overflow:visible;opacity:0.75;" width="130" height="137" xlink:href="B2CE1B94.png"  transform="matrix(0.24 0 0 0.24 56.8 20.04)">
	</image>
	<g>
		<path d="M65.7,29.3c-0.1-0.4-0.3-0.9-0.7-1l-0.1,0.1c0.1,0.7,0,1.4,0.1,2.1c0,0.2,0.2,0.3,0.3,0.2c0,0,0,0,0,0l0.2-0.1
			C65.8,30.2,65.9,29.7,65.7,29.3z"/>
	</g>
</g>
<g>
	
		<image style="overflow:visible;opacity:0.75;" width="130" height="131" xlink:href="B2CE1B93.png"  transform="matrix(0.24 0 0 0.24 59.92 33.24)">
	</image>
	<g>
		<path d="M68.8,41.9l-0.2-0.2l-0.2-0.2l-0.1-0.1l-0.1,0.1l-0.1,0.3l0.1,0.3c0.1,0.2,0.3,0.5,0.6,0.5C69,42.5,69,42.1,68.8,41.9z"/>
	</g>
</g>
<g>
	
		<image style="overflow:visible;opacity:0.75;" width="129" height="128" xlink:href="B2CE1B8D.png"  transform="matrix(0.24 0 0 0.24 57.52 33.96)">
	</image>
	<g>
		<path d="M66.2,42.3c-0.1-0.1-0.2-0.1-0.3-0.2c-0.1-0.1-0.2,0-0.2,0.1c0,0.1,0,0.3,0.1,0.4c0.1,0.1,0.3,0.2,0.4,0.1
			C66.3,42.5,66.3,42.4,66.2,42.3z"/>
	</g>
</g>
<g>
	
		<image style="overflow:visible;opacity:0.75;" width="128" height="129" xlink:href="B2CE1B8F.png"  transform="matrix(0.24 0 0 0.24 58.96 27.48)">
	</image>
	<g>
		<path d="M67.5,35.7h-0.2c-0.2,0.1-0.1,0.3-0.2,0.5c0,0.1,0,0.2,0.1,0.2c0,0,0,0,0,0l0.2-0.1C67.6,36.2,67.7,35.9,67.5,35.7z"/>
	</g>
</g>
<g>
	
		<image style="overflow:visible;opacity:0.75;" width="128" height="131" xlink:href="B2CE1B8C.png"  transform="matrix(0.24 0 0 0.24 63.04 24.84)">
	</image>
	<g>
		<path d="M71.7,33.7c0-0.1,0-0.2,0-0.3l0-0.3c0-0.3-0.4-0.2-0.5,0c0,0.1,0,0.2,0,0.4c0,0.1,0,0.2,0,0.3c0,0.2,0.1,0.3,0.2,0.3
			c0.2,0,0.3-0.1,0.3-0.2c0,0,0,0,0,0L71.7,33.7L71.7,33.7z"/>
	</g>
</g>
<g>
	
		<image style="overflow:visible;opacity:0.75;" width="128" height="132" xlink:href="B2CE1BB3.png"  transform="matrix(0.24 0 0 0.24 52.72 27.72)">
	</image>
	<g>
		<path d="M60.9,35.9l-0.2,0l0,0.1c0.1,0.4,0.2,0.7,0.4,1.1l0.2,0.1l0.1-0.2C61.3,36.6,61.2,36.2,60.9,35.9z"/>
	</g>
</g>
<g>
	
		<image style="overflow:visible;opacity:0.75;" width="128" height="132" xlink:href="B2CE1BB5.png"  transform="matrix(0.24 0 0 0.24 45.28 19.8)">
	</image>
	<g>
		<path d="M54,28c0-0.1-0.2-0.3-0.3-0.1c-0.2,0.4-0.3,0.9-0.3,1.3c0,0.1,0.1,0.2,0.3,0.2c0,0,0,0,0,0l0.1-0.1
			C54.1,28.9,53.9,28.4,54,28z"/>
	</g>
</g>
<g>
	
		<image style="overflow:visible;opacity:0.75;" width="128" height="133" xlink:href="B2CE1BB7.png"  transform="matrix(0.24 0 0 0.24 47.68 19.56)">
	</image>
	<g>
		<path d="M56.3,27.8l-0.1-0.1c-0.6,0.3-0.5,1.1-0.4,1.6c0,0.1,0.1,0.2,0.3,0.2c0.1,0,0.2-0.1,0.2-0.2c0-0.3,0.1-0.5,0.1-0.8
			C56.3,28.2,56.3,28,56.3,27.8z"/>
	</g>
</g>
<g>
	
		<image style="overflow:visible;opacity:0.75;" width="128" height="130" xlink:href="B2CE1BA8.png"  transform="matrix(0.24 0 0 0.24 50.8 20.28)">
	</image>
	<g>
		<path d="M59.4,28.8c0-0.2,0-0.3-0.1-0.5h-0.2C59,28.5,59,28.7,59,28.8c0,0.2,0,0.4,0.1,0.6l0.3,0l0.1-0.1
			C59.5,29.1,59.5,28.9,59.4,28.8z"/>
	</g>
</g>
<g>
	
		<image style="overflow:visible;opacity:0.75;" width="129" height="135" xlink:href="B2CE1BA7.png"  transform="matrix(0.24 0 0 0.24 58 20.28)">
	</image>
	<g>
		<path d="M66.6,28.6c0-0.2-0.3-0.1-0.3,0c-0.1,0.6-0.1,1.1,0.1,1.7c0.1,0.1,0.2,0.2,0.3,0.1l0.1-0.1C67,29.7,66.7,29.1,66.6,28.6z"
			/>
	</g>
</g>
<g>
	
		<image style="overflow:visible;opacity:0.75;" width="130" height="134" xlink:href="B2CE1BD8.png"  transform="matrix(0.24 0 0 0.24 60.4 21.48)">
	</image>
	<g>
		<path d="M69.1,29.7c-0.1-0.3-0.6-0.2-0.5,0.1c0.1,0.5,0.2,0.9,0.3,1.4c0,0.1,0.1,0.2,0.3,0.2c0.1,0,0.2-0.1,0.2-0.2
			C69.5,30.8,69.4,30.2,69.1,29.7z"/>
	</g>
</g>
<g>
	
		<image style="overflow:visible;opacity:0.75;" width="129" height="136" xlink:href="B2CE1BDB.png"  transform="matrix(0.24 0 0 0.24 63.76 28.68)">
	</image>
	<g>
		<path d="M72.5,37c0-0.1-0.1-0.2-0.2-0.2c0,0,0,0,0,0L72.1,37c-0.2,0.7-0.2,1.5-0.2,2.2l0.1,0.1l0.1-0.1
			C72.1,38.4,72.6,37.8,72.5,37z"/>
	</g>
</g>
<g>
	
		<image style="overflow:visible;opacity:0.75;" width="129" height="132" xlink:href="B2CE1BD9.png"  transform="matrix(0.24 0 0 0.24 60.64 31.32)">
	</image>
	<g>
		<path d="M69.5,40.2c0-0.3-0.1-0.5-0.4-0.6c-0.2-0.1-0.3,0.1-0.3,0.3l0.2,0.6c0,0.2,0.1,0.4,0.2,0.5l0.2,0l0-0.1
			C69.5,40.6,69.5,40.4,69.5,40.2z"/>
	</g>
</g>
<g>
	
		<image style="overflow:visible;opacity:0.75;" width="210" height="221" xlink:href="B2CE1BDF.png"  transform="matrix(0.24 0 0 0.24 48.16 54.12)">
	</image>
	<g>
		<path d="M76.4,79.7c-0.7-0.6-1.4-1.1-2.1-1.6c-0.8-0.3-1.6-0.7-2.3-1.2c-1-0.9-1.8-2-2.5-3.2c-0.4-1.6-0.6-3.2-1-4.8
			c-0.4-1.3-0.6-2.7-0.6-4.1c0.1-0.9-0.1-1.8-0.5-2.5c-0.1-0.1-0.2,0-0.2,0.1c0,1.2-0.3,2.4-0.3,3.6c0.1,1.4,0.3,2.8,0.8,4.2
			c0.3,1.4,0.8,2.8,1.3,4.2l0.1,0.4L69,74.8c1,2.2-3.3,4.2-4.8,5.1c-1.7,1-3.4,1.9-5.2,2.6c-1.1,0.5-2.2,1-2.6,2.2l0.1,0.1l0.1,0
			c1.7-0.8,3.4-1.5,5.2-2c1.6-0.7,3.1-1.5,4.5-2.6c1-0.8,3.2-2.7,3.3-4.4c0.4,0.8,0.9,1.5,1.5,2.1c0.5,0.4,1.1,0.8,1.7,0.9
			c1.2,0.3,2.4,0.7,3.6,1.1C76.4,80,76.6,79.8,76.4,79.7z"/>
	</g>
</g>
<g>
	
		<image style="overflow:visible;opacity:0.75;" width="167" height="154" xlink:href="B2CE1BDA.png"  transform="matrix(0.24 0 0 0.24 37.6 70.68)">
	</image>
	<g>
		<path d="M54.6,83.9c-0.9-0.6-1.8-1.1-2.7-1.7c-1.9-1.3-4-2.2-6-3.4l-0.2,0l0,0.2l0,0c2.6,2.7,5.8,4.9,9.2,6.5
			c0.2,0.1,0.4,0,0.4-0.2l0-0.2C55.4,84.6,55.1,84.1,54.6,83.9z"/>
	</g>
</g>
<g>
	
		<image style="overflow:visible;opacity:0.75;" width="137" height="152" xlink:href="B2CE1BE5.png"  transform="matrix(0.24 0 0 0.24 47.2 51.24)">
	</image>
	<g>
		<path d="M57.2,62.6c-0.3-0.6-1.3-2.3-1-3.1l-0.1-0.2l-0.1,0c-1.8,1.3,0.7,4.5,1.1,5.9c0.1,0.2,0.3,0.3,0.5,0.2l0.2-0.2
			C58,64.3,57.8,63.4,57.2,62.6z"/>
	</g>
</g>
<g>
	
		<image style="overflow:visible;opacity:0.75;" width="133" height="153" xlink:href="B2CE1BE6.png"  transform="matrix(0.24 0 0 0.24 45.52 54.36)">
	</image>
	<g>
		<path d="M54.4,62.7c0-0.1-0.2-0.1-0.2,0c-0.1,1,0.1,1.9,0,2.8c-0.1,1-0.3,2-0.5,3c-0.1,0.5,0.7,0.7,0.8,0.2c0.4-1,0.7-2,0.8-3.1
			C55.3,64.5,54.6,63.8,54.4,62.7z"/>
	</g>
</g>
<g>
	
		<image style="overflow:visible;opacity:0.75;" width="130" height="146" xlink:href="B2CE1BE7.png"  transform="matrix(0.24 0 0 0.24 26.08 60.12)">
	</image>
	<g>
		<path d="M35,68.3l-0.2-0.1l-0.1,0.1c-0.7,1.4-0.9,2.9-0.6,4.4c0.1,0.2,0.3,0.2,0.4,0.2l0.2-0.2c0.2-0.8,0.3-1.6,0.3-2.5
			C35.1,69.6,35.1,69,35,68.3z"/>
	</g>
</g>
<g>
	
		<image style="overflow:visible;opacity:0.75;" width="130" height="141" xlink:href="B2CE1BC3.png"  transform="matrix(0.24 0 0 0.24 27.76 61.8)">
	</image>
	<g>
		<path d="M36.7,70.1c0-0.1-0.2-0.1-0.2,0c-0.2,0.5-0.4,1.1-0.6,1.6c-0.1,0.6-0.1,1.1,0.1,1.7c0.1,0.1,0.2,0.2,0.3,0.1c0,0,0,0,0,0
			l0.1-0.1c0.1-0.6,0.2-1.1,0.1-1.7C36.7,71.2,36.7,70.6,36.7,70.1z"/>
	</g>
</g>
<g>
	
		<image style="overflow:visible;opacity:0.75;" width="133" height="147" xlink:href="B2CE1BC5.png"  transform="matrix(0.24 0 0 0.24 28.48 62.76)">
	</image>
	<g>
		<path d="M38.2,70.9l-0.1-0.1l-0.1,0c-0.4,0.7-0.7,1.4-0.9,2.2c-0.3,0.8-0.5,1.6-0.5,2.4c0,0.2,0.1,0.4,0.3,0.4
			c0.1,0,0.2,0,0.3-0.1C38.1,74.3,38.5,72.6,38.2,70.9z"/>
	</g>
</g>
<g>
	
		<image style="overflow:visible;opacity:0.75;" width="134" height="149" xlink:href="B2CE1BC7.png"  transform="matrix(0.24 0 0 0.24 30.16 62.04)">
	</image>
	<g>
		<path d="M39.8,70.2c-0.6,0.5-0.6,1.4-0.7,2.1c-0.2,1.1-1,2.1-0.8,3.2c0,0.2,0.2,0.3,0.4,0.3c0,0,0,0,0,0l0.2-0.1
			c0.9-1.6,1.3-3.5,1.1-5.3L39.8,70.2L39.8,70.2z"/>
	</g>
</g>
<g>
	
		<image style="overflow:visible;opacity:0.75;" width="134" height="143" xlink:href="B2CE1BC2.png"  transform="matrix(0.24 0 0 0.24 31.6 63.48)">
	</image>
	<g>
		<path d="M41.4,71.6c-0.1-0.1-0.2,0-0.2,0.1c0.1,1.5-1.1,2.3-1.5,3.6c0,0.2,0.1,0.3,0.3,0.4l0.2,0C41.6,74.8,42.1,73.1,41.4,71.6z"
			/>
	</g>
</g>
<g>
	
		<image style="overflow:visible;opacity:0.75;" width="133" height="143" xlink:href="B2CE1BC1.png"  transform="matrix(0.24 0 0 0.24 33.76 63)">
	</image>
	<g>
		<path d="M43.2,71.2c-0.2,0.6-0.4,1.3-0.6,2c-0.3,0.6-0.6,1.2-0.8,1.8c0,0.3,0.3,0.4,0.4,0.3c0.6-0.4,1-1,1.1-1.6
			c0.2-0.7-0.1-1.5,0.1-2.3C43.5,71.1,43.3,71,43.2,71.2z"/>
	</g>
</g>
<g>
	
		<image style="overflow:visible;opacity:0.75;" width="132" height="138" xlink:href="B2CE1BCD.png"  transform="matrix(0.24 0 0 0.24 33.76 59.64)">
	</image>
	<g>
		<path d="M43.1,67.9c-0.3,0.8-0.7,1.6-1.2,2.4c-0.1,0.2,0.1,0.3,0.3,0.2c0.8-0.6,1.3-1.5,1.2-2.5L43.1,67.9L43.1,67.9z"/>
	</g>
</g>
<g>
	
		<image style="overflow:visible;opacity:0.75;" width="135" height="160" xlink:href="B2CE1BCF.png"  transform="matrix(0.24 0 0 0.24 35.44 58.68)">
	</image>
	<g>
		<path d="M45.1,66.9L45,66.8l-0.1,0.1c-0.4,1.2-0.6,2.5-0.4,3.8c-0.1,1.3-0.4,2.6-0.7,3.8c0,0.2,0.1,0.4,0.3,0.4l0.2,0
			C47,73.5,45,69.2,45.1,66.9z"/>
	</g>
</g>
<g>
	
		<image style="overflow:visible;opacity:0.75;" width="131" height="143" xlink:href="B2CE1BC0.png"  transform="matrix(0.24 0 0 0.24 38.32 61.8)">
	</image>
	<g>
		<path d="M47.3,70.1L47.2,70l-0.1,0.1c-0.2,0.6-0.3,1.1-0.4,1.7c-0.1,0.6-0.4,1.2-0.4,1.9c0,0.2,0.3,0.5,0.5,0.3
			C47.7,72.9,47.9,71.4,47.3,70.1z"/>
	</g>
</g>
<g>
	
		<image style="overflow:visible;opacity:0.75;" width="131" height="140" xlink:href="B2CE1BC6.png"  transform="matrix(0.24 0 0 0.24 39.76 62.76)">
	</image>
	<g>
		<path d="M48.9,71c-0.5,0.9-0.8,2-0.9,3c0,0.2,0.3,0.4,0.4,0.2c0.5-1,0.7-2,0.7-3.1L49,71L48.9,71z"/>
	</g>
</g>
<g>
	
		<image style="overflow:visible;opacity:0.75;" width="131" height="156" xlink:href="B2CE1BDC.png"  transform="matrix(0.24 0 0 0.24 41.44 59.16)">
	</image>
	<g>
		<path d="M50.3,67.5l-0.1-0.1l-0.1,0.1c-0.3,2.3-0.4,4.5-0.4,6.8c0,0.2,0.2,0.3,0.3,0.2c0,0,0,0,0,0l0.2-0.1
			C50.9,72.1,51,69.7,50.3,67.5z"/>
	</g>
</g>
<g>
	
		<image style="overflow:visible;opacity:0.75;" width="132" height="149" xlink:href="B2CE1B22.png"  transform="matrix(0.24 0 0 0.24 43.6 60.36)">
	</image>
	<g>
		<path d="M52,68.6l-0.2,0l0,0.1c0.2,0.8,0.3,1.7,0.3,2.5c-0.1,0.8-0.4,1.6-0.4,2.4c0,0.2,0.1,0.4,0.4,0.4c0.1,0,0.2,0,0.3-0.1
			C53.6,72.3,53.5,70,52,68.6z"/>
	</g>
</g>
<g>
	
		<image style="overflow:visible;opacity:0.75;" width="130" height="146" xlink:href="B2CE1B25.png"  transform="matrix(0.24 0 0 0.24 37.84 57.48)">
	</image>
	<g>
		<path d="M46.9,65.7c0-0.1-0.2-0.2-0.2-0.1c-0.3,0.7-0.2,1.5-0.3,2.2c-0.3,0.7-0.4,1.4-0.5,2.2c0,0.3,0.4,0.3,0.5,0.1
			c0.3-0.7,0.6-1.4,0.6-2.2C47.1,67.2,46.7,66.4,46.9,65.7z"/>
	</g>
</g>
<g>
	
		<image style="overflow:visible;opacity:0.75;" width="133" height="148" xlink:href="B2CE1B26.png"  transform="matrix(0.24 0 0 0.24 39.52 56.04)">
	</image>
	<g>
		<path d="M48,64.3c0-0.1-0.3-0.2-0.3,0c0.1,0.8,0.2,1.6,0.4,2.3c0.2,0.8,0.1,1.7,0.3,2.5c0.1,0.2,0.4,0.4,0.6,0.1
			C50,67.6,48.3,65.8,48,64.3z"/>
	</g>
</g>
<g>
	
		<image style="overflow:visible;opacity:0.75;" width="132" height="137" xlink:href="B2CE1B24.png"  transform="matrix(0.24 0 0 0.24 40.96 55.56)">
	</image>
	<g>
		<path d="M49.3,63.6l-0.1,0.1l0.1,0.1c0.7,0.3,0.4,1.6,0.6,2.1c0.1,0.1,0.2,0.2,0.3,0.1l0.1-0.1C50.7,65.3,50.3,63.7,49.3,63.6z"/>
	</g>
</g>
<g>
	
		<image style="overflow:visible;opacity:0.75;" width="131" height="151" xlink:href="B2CE1B23.png"  transform="matrix(0.24 0 0 0.24 42.64 54.12)">
	</image>
	<g>
		<path d="M51.1,62.4c0-0.2-0.3-0.1-0.3,0c-0.1,0.9,0,1.7,0.1,2.6c0,1,0,1.9,0.1,2.9c0.1,0.3,0.5,0.4,0.7,0.1
			C52.1,66.1,51.9,64.2,51.1,62.4z"/>
	</g>
</g>
<g>
	
		<image style="overflow:visible;opacity:0.75;" width="132" height="152" xlink:href="B2CE1B3D.png"  transform="matrix(0.24 0 0 0.24 44.08 52.92)">
	</image>
	<g>
		<path d="M52.3,61.1c-0.1-0.1-0.3,0-0.2,0.1c0.5,1.9,0.6,3.8,0.4,5.7c0,0.3,0.4,0.5,0.6,0.2C54,65.2,53.7,62.9,52.3,61.1z"/>
	</g>
</g>
<g>
	
		<image style="overflow:visible;opacity:0.75;" width="137" height="148" xlink:href="B2CE1B3E.png"  transform="matrix(0.24 0 0 0.24 50.32 39.48)">
	</image>
	<g>
		<path d="M60.8,47.8c-0.4,0.8-1.1,1.2-1.5,2.1c-0.4,0.9-0.6,1.8-0.8,2.8c0,0.2,0.1,0.3,0.3,0.3c0.1,0,0.2,0,0.3-0.1
			c0.5-0.9,0.9-1.9,1.1-2.9c0.4-0.7,0.7-1.4,0.9-2.1C61.1,47.7,60.9,47.6,60.8,47.8z"/>
	</g>
</g>
<g>
	
		<image style="overflow:visible;opacity:0.75;" width="132" height="138" xlink:href="B2CE1B3C.png"  transform="matrix(0.24 0 0 0.24 50.32 38.04)">
	</image>
	<g>
		<path d="M59.8,46.3l-0.1-0.2l-0.2,0.1c-0.2,0.4-0.3,0.7-0.4,1.1c-0.1,0.4-0.2,0.8-0.5,1.1c-0.3,0.4,0.2,0.8,0.6,0.6
			c0.4-0.3,0.6-0.7,0.6-1.2C59.7,47.3,59.7,46.8,59.8,46.3z"/>
	</g>
</g>
<g>
	
		<image style="overflow:visible;opacity:0.75;" width="310" height="170" xlink:href="B2CE1B27.png"  transform="matrix(0.24 0 0 0.24 15.76 33.48)">
	</image>
	<g>
		<path class="st2" d="M67.8,43.9c-1.5-0.4-3.1-0.6-4.7-0.6c-0.1-0.1-0.3-0.2-0.4-0.2c-1.8-0.1-3.6-0.5-5.5-0.7
			c-1.6-0.2-3.2-0.2-4.8-0.2c-0.1-0.1-0.3-0.2-0.5-0.2c-5.8-0.6-11.7-0.3-17.4,1c-2.7,0-5.4-0.3-8-0.8c-0.8-0.1-1.6,0-2.3,0.4
			c-0.8,0.6,0,1.6-0.5,2.3c-0.1,0.1,0.1,0.3,0.2,0.2c0.5-0.4,0.5-0.9,0.9-1.3c-0.1,0.5-0.1,1,0,1.5c0.2,1.4,0.6,2.8,1.3,4.1
			c1.2,1.8,3.9,3.6,5.2,0.9l0.1-0.2c0.4-0.3,0.7-0.7,1-1.2c0.8-1.2,1.5-2.4,2-3.8c0.3-0.1,0.7-0.1,1,0l0.2,0.1
			c0.2,0.4,0.5,0.7,0.8,1c0.2,0.2,0.3,0.5,0.5,0.8c0.2,1.8,1.2,3.4,2.6,4.6c1.6,0.8,3.3,1,5,0.6c1.5-0.4,2.5-1.7,2.6-3.2
			c0.1-1,0.1-1.9,0-2.9c-0.1-0.9-0.3-1.7-0.6-2.5c-0.1-0.1-0.2-0.3-0.3-0.4c0.4,0,0.7,0,1.1,0l0.1,0.2l0,0c0,0.3,0.1,0.6,0.1,0.9
			c0.1,0.4,0.4,0.6,0.8,0.6c0.2,0,0.3-0.1,0.4-0.2c0.2-0.4,0.7-0.5,1.3-0.5c0.1,0.2,0.4,0.3,0.6,0.3c2.2,0,4.3,0.2,6.5,0.5
			c0.1,0.1,0.2,0.2,0.3,0.2c0.6,0,1.1,0,1.7,0l0.5,0c0.1,0,0.2,0,0.3-0.1l0.4,0c0.7,0.1,1.3,0.1,2-0.1h0v0l0.2,0l0.1,0l0.8,0
			c1.5,0.1,3.1,0,4.6-0.4c0.1-0.1,0.2-0.2,0.1-0.3c0,0,0,0,0,0L67.8,43.9z"/>
	</g>
</g>
<path d="M68.3,62.2L68,61.9c0.2-0.2,0.3-0.4,0.4-0.6c0.1-0.2,0-0.3-0.1-0.4c-0.3-0.1-0.4,1.1-1.1,0.9c-0.4-0.1-0.6-0.4-0.4-1
	c0.1-0.3,0.2-0.5,0.3-0.7l0.4,0.3c-0.1,0.2-0.2,0.3-0.3,0.5c-0.1,0.2,0,0.3,0.1,0.4c0.3,0.1,0.3-1.1,1.1-0.9c0.4,0.1,0.6,0.4,0.4,1
	C68.7,61.7,68.5,62,68.3,62.2z"/>
<path d="M69.8,57.5l-0.2,0.9l0.4,0.2l-0.1,0.6L68,57.8l0.1-0.6l2.2-0.4l-0.1,0.6L69.8,57.5z M69.3,57.6l-0.7,0.1l0.6,0.4L69.3,57.6z
	"/>
<path d="M70,52.9l2,0.7L71.8,54l-1.3,0.5l1,0.4l-0.2,0.5l-2-0.7l0.2-0.5l1.3-0.5l-1-0.4L70,52.9z"/>
<path d="M74.3,37.4l2,0.5l-0.1,0.5L75,39l1.1,0.3l-0.1,0.6l-2-0.5l0.1-0.5l1.3-0.6L74.2,38L74.3,37.4z"/>
<path d="M71.1,50.9l0.2-1c0.1-0.7,0.6-1.1,1.2-0.9c0.6,0.1,0.9,0.7,0.8,1.3l-0.2,1L71.1,50.9z M72.8,50.2c0.1-0.3-0.1-0.6-0.4-0.7
	c-0.4-0.1-0.6,0.1-0.7,0.5l-0.1,0.4l1.1,0.2L72.8,50.2z"/>
<path d="M72.2,44.9l2,0.4l-0.1,0.6l-0.8-0.2l-0.2,0.8l0.8,0.2l-0.1,0.6l-2-0.4l0.1-0.6l0.8,0.2l0.2-0.8l-0.8-0.2L72.2,44.9z"/>
<path d="M74.9,42.2L74.7,43l0.3,0.3l-0.2,0.6l-1.7-1.5l0.2-0.5l2.2-0.2l-0.2,0.6L74.9,42.2z M74.5,42.2l-0.7,0l0.5,0.5L74.5,42.2z"
	/>
<path d="M74.5,35.8l0.1-0.6l2,0.3l-0.1,0.6L74.5,35.8z"/>
<path d="M76.6,79.2l-0.4-0.4c-0.3-0.3-0.3-0.6-0.1-0.9s0.6-0.2,0.9,0l0.4,0.4L76.6,79.2z M76.8,78.2c-0.1-0.1-0.3-0.1-0.5,0
	c-0.1,0.2-0.1,0.3,0,0.5l0.2,0.1l0.5-0.5L76.8,78.2z"/>
<path d="M74.9,76.7l0.2-0.2l0.7,0.6L75,78l-0.7-0.6l0.2-0.2l0.5,0.4l0.1-0.2l-0.4-0.4l0.2-0.2l0.4,0.4l0.1-0.2L74.9,76.7z"/>
<path d="M72.5,76.2l1.2-0.5l0.2,0.2l-0.5,1.2l-0.3-0.3l0.3-0.8l-0.8,0.3L72.5,76.2z"/>
<path d="M72.1,74.5l0.2-0.1l0.4,0.9l-1.1,0.5l-0.4-0.9l0.2-0.1l0.3,0.6l0.2-0.1l-0.2-0.5l0.2-0.1l0.2,0.5l0.2-0.1L72.1,74.5z"/>
<path d="M70.5,73.9l-0.1-0.3l0.9-0.3l-0.2-0.5l0.3-0.1l0.3,0.9L70.5,73.9z"/>
<path d="M70.4,72.3c-0.3,0.1-0.7-0.1-0.8-0.4c-0.1-0.4,0-0.7,0.4-0.8s0.7,0.1,0.8,0.4C70.9,71.9,70.7,72.2,70.4,72.3z M70,71.4
	c-0.2,0.1-0.3,0.2-0.2,0.4c0.1,0.2,0.2,0.3,0.4,0.2c0.2-0.1,0.3-0.2,0.2-0.4C70.4,71.4,70.2,71.3,70,71.4z"/>
<path d="M69.5,69c0.3,0,0.5,0.1,0.5,0.5l0,0.2l0.3,0l0.1,0.3l-1.2,0.2l-0.1-0.5C69.1,69.3,69.2,69,69.5,69z M69.6,69.3
	c-0.1,0-0.2,0.1-0.1,0.2l0,0.2l0.4-0.1l0-0.2C69.7,69.4,69.7,69.3,69.6,69.3z"/>
<path d="M69.6,66.9l0.3,0l0.1,1l-1.2,0.1L68.7,67l0.3,0l0,0.6l0.2,0l0-0.5l0.3,0l0,0.5l0.2,0L69.6,66.9z"/>
<path d="M69.2,64.9l0,0.2l0.3,0l0,0.3l-1.2,0.1l-0.1-0.6c0-0.3,0.1-0.6,0.4-0.6c0.2,0,0.3,0.1,0.4,0.2l0.4-0.3l0,0.4L69.2,64.9z
	 M68.6,64.9l0,0.2l0.4,0l0-0.2c0-0.1-0.1-0.2-0.2-0.2C68.6,64.7,68.6,64.8,68.6,64.9z"/>
<path d="M46.1,81.2l-0.4,0.4l0.8,0.9L46,82.8l-0.8-0.9l-0.7,0.6L44.1,82l2-1.7l1.3,1.6L47,82.2L46.1,81.2z"/>
<path d="M47.5,83.3l1.1-1l0.5,0.6l-1.1,1c-0.3,0.3-0.4,0.6-0.1,0.8c0.2,0.2,0.5,0.3,0.8,0l1.1-1l0.5,0.6l-1.1,1
	c-0.6,0.5-1.2,0.5-1.7-0.1C46.9,84.5,46.9,83.8,47.5,83.3z"/>
<path d="M51.5,84.4l0.6,0.5l-1.4,1.5l0.9,0.9l-0.4,0.4l-1.5-1.4L51.5,84.4z"/>
<path d="M53.3,85.9l0.7,0.4l-1,1.8l1.1,0.6l-0.3,0.5l-1.8-1L53.3,85.9z"/>
<path d="M55.2,88.7l0.2-0.6c0.2,0.2,0.6,0.3,0.9,0.3c0.3,0,0.4-0.1,0.4-0.2c0-0.4-1.5-0.1-1.5-1.1c0-0.5,0.4-0.9,1.2-0.9
	c0.3,0,0.7,0.1,1,0.2L57.2,87c-0.3-0.1-0.5-0.2-0.7-0.2c-0.3,0-0.4,0.1-0.4,0.2c0,0.4,1.5,0.1,1.5,1.1c0,0.5-0.4,0.9-1.2,0.9
	C55.9,88.9,55.5,88.8,55.2,88.7z"/>
<path d="M59.2,86.2l-0.8,0.2l-0.2-0.6l2.3-0.6l0.2,0.6L59.9,86l0.5,2l-0.7,0.2L59.2,86.2z"/>
<path d="M63.8,85.7l-1,0.6l0.1,0.6l-0.7,0.4L62,84.3l0.6-0.4l2.3,1.7L64.3,86L63.8,85.7z M63.4,85.3l-0.7-0.6l0.1,0.9L63.4,85.3z"/>
<path d="M64.6,84.4c-0.3-0.7,0-1.5,0.7-1.9c0.4-0.2,0.9-0.2,1.2,0l-0.2,0.6c-0.2-0.1-0.5-0.1-0.7,0c-0.4,0.2-0.5,0.6-0.3,1
	s0.6,0.6,1,0.4c0.2-0.1,0.4-0.3,0.4-0.6l0.6,0.2c-0.1,0.4-0.4,0.7-0.8,0.9C65.8,85.4,65,85.1,64.6,84.4z"/>
<path d="M68.8,82.5l-0.1,0.4l0.3,0.6l-0.6,0.4L67,81.6l0.6-0.4l0.6,1l0.3-1.5l0.7-0.4l-0.3,1.6l1.7,0.7L69.9,83L68.8,82.5z"/>
</svg>
